<svg version="1.1" xmlns="http://www.w3.org/2000/svg" viewBox="0 0 1463 2916" width="4389" height="8748">
  <!-- svg-source:excalidraw -->
  
  <defs>
    <style>
      @font-face {
        font-family: "Virgil";
        src: url("https://excalidraw.com/Virgil.woff2");
      }
      @font-face {
        font-family: "Cascadia";
        src: url("https://excalidraw.com/Cascadia.woff2");
      }
    </style>
  </defs>
  <rect x="0" y="0" width="1463" height="2916" fill="#ffffff"></rect><g stroke-linecap="round" transform="translate(225 10) rotate(0 492.5 238.5)"><path d="M-0.64 -0.67 C226.56 1.05, 454.98 0.89, 985.42 0.29 M-0.12 0.17 C221.76 -3.91, 443.39 -3.87, 985.05 0.15 M985.7 0.87 C987.26 138.62, 985.84 276.25, 985.12 477.4 M984.83 -0.22 C986.1 134.23, 986.58 268.9, 984.86 477.16 M985.73 477.55 C627.87 479.26, 272.21 478.75, -0.54 476.83 M984.76 477.3 C769.15 478.42, 553.17 478.3, 0.26 476.93 M0.56 476.48 C0.26 341.35, -0.45 206.43, 0.07 0.12 M-0.11 477.44 C1.1 372.13, 0.7 266.67, 0.04 -0.19" stroke="#000000" stroke-width="1" fill="none"></path></g><g stroke-linecap="round" transform="translate(320 45) rotate(0 395 48)"><path d="M0.57 -0.78 C260.07 0.91, 518.03 1.41, 790.23 0.56 M-0.04 -0.24 C306.82 1.8, 614.47 2.11, 789.71 0.16 M791.32 0.44 C791.91 35.54, 789.07 72.33, 788.46 95.32 M789.92 -0.08 C788.78 37.62, 788.68 75.51, 790.98 96.5 M789.28 96.79 C628.21 95.13, 468.21 96.38, 0.64 96.75 M789.77 95.77 C516.95 98.33, 243.29 98.75, 0.01 96.17 M0.71 97.71 C1.13 57.55, -1.2 22.57, 0.32 0.36 M-0.29 96.92 C-0.4 76.33, -0.7 54.94, 0.62 -0.91" stroke="#000000" stroke-width="1" fill="none"></path></g><g transform="translate(437 77) rotate(0 64 11.5)"><text x="0" y="18" font-family="Helvetica, Segoe UI Emoji" font-size="20px" fill="#000000" text-anchor="start" style="white-space: pre;" direction="ltr">Story Roulette</text></g><g transform="translate(956 150) rotate(0 21.5 11.5)"><text x="0" y="18" font-family="Helvetica, Segoe UI Emoji" font-size="20px" fill="#000000" text-anchor="start" style="white-space: pre;" direction="ltr">login</text></g><g transform="translate(1031 149) rotate(0 34 11.5)"><text x="0" y="18" font-family="Helvetica, Segoe UI Emoji" font-size="20px" fill="#000000" text-anchor="start" style="white-space: pre;" direction="ltr">register</text></g><g transform="translate(856 185) rotate(0 108 11.5)"><text x="0" y="18" font-family="Helvetica, Segoe UI Emoji" font-size="20px" fill="#c92a2a" text-anchor="start" style="white-space: pre;" direction="ltr">if logged in replace with:</text></g><g transform="translate(947 215) rotate(0 73.5 11.5)"><text x="0" y="18" font-family="Helvetica, Segoe UI Emoji" font-size="20px" fill="#c92a2a" text-anchor="start" style="white-space: pre;" direction="ltr">Hello, username</text></g><g transform="translate(1103 266) rotate(0 -4 -6.5)" stroke="none"><path fill="#c92a2a" d="M -0.83,2.50 Q -0.83,2.50 -1.70,2.24 -2.57,1.99 -4.20,1.10 -5.83,0.21 -6.71,-1.08 -7.59,-2.38 -8.20,-3.91 -8.81,-5.44 -9.00,-6.79 -9.20,-8.13 -10.06,-9.78 -10.92,-11.43 -11.10,-11.94 -11.27,-12.45 -11.27,-12.98 -11.27,-13.52 -11.10,-14.03 -10.93,-14.54 -10.61,-14.97 -10.29,-15.40 -9.84,-15.70 -9.40,-16.00 -8.88,-16.15 -8.37,-16.29 -7.83,-16.27 -7.29,-16.24 -6.79,-16.04 -6.29,-15.85 -5.88,-15.50 -5.47,-15.15 -5.19,-14.69 -4.92,-14.23 -4.80,-13.71 -4.68,-13.19 -4.74,-12.65 -4.79,-12.12 -5.02,-11.63 -5.24,-11.14 -5.61,-10.75 -5.98,-10.36 -6.45,-10.11 -6.92,-9.85 -7.45,-9.76 -7.98,-9.68 -8.51,-9.76 -9.04,-9.85 -9.52,-10.10 -9.99,-10.35 -10.37,-10.73 -10.74,-11.12 -10.96,-11.61 -11.19,-12.10 -11.25,-12.63 -11.31,-13.16 -11.20,-13.69 -11.08,-14.21 -10.81,-14.67 -10.53,-15.14 -10.12,-15.48 -9.72,-15.83 -9.22,-16.03 -8.72,-16.23 -8.18,-16.27 -7.65,-16.30 -7.13,-16.15 -6.61,-16.01 -6.17,-15.71 -5.72,-15.41 -5.39,-14.99 -5.07,-14.56 -5.07,-14.56 -5.07,-14.56 -3.88,-12.43 -2.69,-10.29 -3.12,-9.13 -3.55,-7.97 -3.16,-6.47 -2.77,-4.97 -1.82,-4.05 -0.87,-3.14 -0.01,-2.82 0.83,-2.50 1.12,-2.36 1.40,-2.23 1.65,-2.02 1.90,-1.82 2.09,-1.57 2.28,-1.32 2.40,-1.02 2.53,-0.73 2.58,-0.42 2.63,-0.10 2.61,0.20 2.58,0.52 2.48,0.82 2.38,1.12 2.21,1.39 2.04,1.66 1.81,1.88 1.58,2.10 1.31,2.26 1.03,2.42 0.72,2.51 0.42,2.60 0.10,2.61 -0.21,2.62 -0.52,2.56 -0.83,2.50 -0.83,2.50 L -0.83,2.50 Z"></path></g><g transform="translate(1081 253) rotate(0 12 -4)" stroke="none"><path fill="#c92a2a" d="M -0.83,-2.49 Q -0.83,-2.49 -0.05,-2.76 0.71,-3.04 1.71,-4.50 2.71,-5.96 3.35,-7.19 3.98,-8.42 5.16,-9.12 6.34,-9.83 7.73,-10.04 9.12,-10.25 10.27,-10.64 11.41,-11.04 12.54,-11.17 13.67,-11.30 15.01,-11.32 16.36,-11.34 17.60,-10.89 18.85,-10.44 20.53,-9.56 22.21,-8.68 23.14,-9.09 24.07,-9.50 24.62,-9.40 25.18,-9.29 25.68,-9.02 26.17,-8.74 26.56,-8.32 26.94,-7.90 27.16,-7.38 27.39,-6.86 27.44,-6.30 27.49,-5.73 27.36,-5.18 27.22,-4.63 26.92,-4.15 26.62,-3.67 26.18,-3.31 25.74,-2.95 25.21,-2.76 24.68,-2.56 24.11,-2.54 23.54,-2.52 23.00,-2.68 22.46,-2.84 21.99,-3.17 21.53,-3.50 21.20,-3.96 20.86,-4.42 20.69,-4.96 20.52,-5.50 20.54,-6.07 20.55,-6.63 20.74,-7.17 20.93,-7.70 21.28,-8.15 21.64,-8.59 22.11,-8.90 22.59,-9.21 23.14,-9.35 23.69,-9.49 24.25,-9.45 24.82,-9.40 25.34,-9.18 25.86,-8.96 26.29,-8.58 26.71,-8.21 27.00,-7.72 27.28,-7.22 27.39,-6.67 27.50,-6.11 27.43,-5.55 27.35,-4.99 27.10,-4.48 26.86,-3.97 26.46,-3.56 26.06,-3.16 25.55,-2.91 25.04,-2.65 24.48,-2.57 23.92,-2.49 23.92,-2.49 23.92,-2.49 20.69,-3.16 17.45,-3.82 15.77,-4.59 14.09,-5.35 12.21,-4.51 10.34,-3.66 9.00,-3.53 7.65,-3.41 6.98,-2.28 6.30,-1.16 5.36,-0.31 4.41,0.53 3.57,1.21 2.73,1.89 1.78,2.19 0.83,2.49 0.52,2.56 0.21,2.62 -0.10,2.61 -0.42,2.59 -0.72,2.51 -1.03,2.42 -1.30,2.26 -1.58,2.10 -1.81,1.88 -2.04,1.66 -2.21,1.39 -2.37,1.12 -2.47,0.82 -2.58,0.52 -2.60,0.20 -2.63,-0.10 -2.57,-0.42 -2.52,-0.73 -2.40,-1.02 -2.27,-1.31 -2.08,-1.57 -1.89,-1.82 -1.65,-2.02 -1.40,-2.22 -1.11,-2.36 -0.83,-2.49 -0.83,-2.49 L -0.83,-2.49 Z"></path></g><g transform="translate(1071 274) rotate(0 79 11.5)"><text x="0" y="18" font-family="Helvetica, Segoe UI Emoji" font-size="20px" fill="#c92a2a" text-anchor="start" style="white-space: pre;" direction="ltr">links to user page</text></g><g stroke-linecap="round" transform="translate(352 283) rotate(0 350 93)"><path d="M-0.03 -0.72 C169.99 -0.18, 339.28 0.73, 700.65 0.23 M0.01 0.29 C167.61 -1.33, 335.66 -1.92, 699.75 -0.31 M700.94 1.33 C700.19 54.38, 699 106.3, 700.21 186.78 M699.82 -0.75 C699.18 53.31, 700.57 107.8, 699.98 185.13 M699.85 185.4 C487.63 184.32, 274.32 185.5, -0.66 185.73 M700.01 185.91 C503.28 184.87, 306.31 184.79, -0.23 186.32 M-1.05 186.95 C-2.08 135.96, -0.55 90.55, -0.87 1.94 M0.22 185.39 C0.08 140.9, -1.64 95.97, 0.28 -0.7" stroke="#c92a2a" stroke-width="1" fill="none"></path></g><g transform="translate(539 360) rotate(0 86 11.5)"><text x="0" y="18" font-family="Helvetica, Segoe UI Emoji" font-size="20px" fill="#000000" text-anchor="start" style="white-space: pre;" direction="ltr">latest finished story</text></g><g transform="translate(1126 231) rotate(0 163.5 259)" stroke="none"><path fill="#000000" d="M 0,-2.66 Q 0,-2.66 1.15,-2.68 2.3,-2.70 3.69,-2.77 5.08,-2.84 6.15,-2.90 7.22,-2.96 8.85,-3.40 10.48,-3.84 11.58,-4.16 12.68,-4.48 14.25,-4.79 15.82,-5.10 17.11,-5.53 18.40,-5.97 19.65,-6.09 20.90,-6.20 22.40,-6.73 23.89,-7.26 25.08,-7.47 26.26,-7.68 28.01,-7.92 29.75,-8.15 31.10,-8.60 32.44,-9.04 33.77,-9.18 35.10,-9.33 36.52,-9.83 37.93,-10.34 39.07,-10.40 40.20,-10.46 42.02,-10.47 43.83,-10.48 45.29,-10.47 46.75,-10.46 47.96,-10.47 49.17,-10.48 50.99,-10.48 52.82,-10.48 54.00,-10.49 55.18,-10.49 56.78,-10.46 58.39,-10.44 60.16,-10.41 61.92,-10.39 63.47,-10.38 65.01,-10.38 66.69,-10.36 68.36,-10.34 70.14,-10.32 71.91,-10.31 73.46,-10.31 75.01,-10.31 76.11,-10.34 77.21,-10.36 78.30,-10.33 79.39,-10.31 80.75,-10.32 82.11,-10.33 83.83,-9.94 85.55,-9.55 87.08,-9.33 88.62,-9.12 90.32,-9.07 92.01,-9.03 93.83,-8.60 95.64,-8.16 97.08,-8.18 98.51,-8.19 99.69,-7.73 100.87,-7.26 102.09,-7.32 103.32,-7.38 104.79,-7.40 106.26,-7.42 108.13,-7.03 110.00,-6.64 111.18,-6.56 112.37,-6.48 113.93,-6.46 115.49,-6.43 116.73,-5.95 117.97,-5.47 120.02,-5.09 122.08,-4.70 123.03,-4.12 123.98,-3.53 126.00,-3.01 128.02,-2.48 129.82,-2.04 131.62,-1.60 133.69,-1.16 135.76,-0.72 136.75,-0.14 137.74,0.42 139.28,0.87 140.82,1.31 141.87,1.81 142.92,2.31 144.45,2.85 145.99,3.40 146.98,3.88 147.98,4.37 149.48,4.90 150.99,5.43 151.97,5.92 152.96,6.40 155.12,7.39 157.28,8.38 159.12,9.43 160.97,10.47 162.09,10.96 163.20,11.44 164.38,11.99 165.56,12.54 167.01,13.46 168.46,14.38 169.56,14.99 170.65,15.61 171.90,16.59 173.15,17.58 174.37,18.51 175.59,19.45 176.64,20.08 177.69,20.71 178.71,21.25 179.72,21.79 181.08,22.68 182.44,23.57 183.39,24.25 184.35,24.93 186.21,26.47 188.07,28.01 189.57,28.90 191.07,29.78 192.11,30.87 193.14,31.96 194.28,32.86 195.42,33.76 197.01,35.43 198.61,37.10 200.06,39.03 201.52,40.96 202.53,42.10 203.54,43.25 204.06,44.60 204.59,45.95 205.63,47.53 206.66,49.11 207.27,50.63 207.89,52.15 208.99,53.67 210.09,55.18 210.75,56.80 211.41,58.42 212.26,59.79 213.12,61.15 213.62,62.14 214.12,63.12 214.61,64.12 215.09,65.11 215.58,66.12 216.07,67.12 216.58,68.55 217.10,69.99 218.02,71.58 218.94,73.17 219.64,74.39 220.33,75.60 220.82,77.06 221.30,78.51 222.13,80.39 222.96,82.26 223.43,83.25 223.91,84.23 224.88,85.73 225.85,87.23 226.37,88.21 226.89,89.20 227.88,90.70 228.88,92.20 229.40,93.19 229.92,94.18 230.79,96.08 231.66,97.98 232.87,100.07 234.08,102.17 235.00,103.64 235.92,105.12 237.26,106.55 238.60,107.98 239.04,109.29 239.47,110.60 240.59,111.80 241.70,113.00 242.80,114.59 243.91,116.18 244.30,117.52 244.69,118.87 245.70,120.49 246.71,122.10 247.43,123.18 248.16,124.26 249.40,126.49 250.65,128.72 251.76,130.85 252.88,132.99 253.86,134.52 254.83,136.06 255.54,137.13 256.24,138.20 256.73,139.16 257.21,140.12 257.69,141.11 258.17,142.09 259.17,144.06 260.17,146.02 261.10,147.58 262.02,149.13 262.56,150.57 263.11,152.01 263.56,153.06 264.02,154.12 264.66,156.22 265.30,158.32 266.14,159.78 266.98,161.24 267.66,162.42 268.33,163.60 268.97,164.77 269.61,165.95 270.17,167.03 270.74,168.11 271.27,169.14 271.80,170.17 272.49,171.40 273.19,172.62 274.26,175.10 275.34,177.57 275.90,179.22 276.47,180.87 277.38,181.88 278.29,182.90 278.54,184.10 278.79,185.30 279.29,186.35 279.79,187.40 280.13,188.53 280.47,189.67 280.77,191.20 281.08,192.73 282.00,193.93 282.93,195.14 283.57,196.61 284.21,198.08 284.45,199.35 284.68,200.61 285.58,201.71 286.48,202.81 286.70,204.39 286.93,205.96 287.41,207.16 287.89,208.35 288.40,209.83 288.91,211.31 289.41,212.79 289.91,214.26 290.45,215.72 290.99,217.19 291.48,219.13 291.97,221.06 292.45,222.67 292.93,224.28 293.62,226.20 294.30,228.13 294.72,229.15 295.13,230.16 295.42,231.52 295.71,232.87 296.22,235.29 296.73,237.71 297.23,239.86 297.72,242.02 297.80,243.15 297.88,244.29 298.13,245.34 298.38,246.39 298.50,248.01 298.63,249.62 299.03,251.44 299.42,253.25 299.90,254.99 300.39,256.73 301.06,258.55 301.73,260.38 302.31,262.45 302.90,264.51 303.41,266.55 303.91,268.58 304.65,271.14 305.39,273.70 306.24,275.89 307.09,278.09 307.76,280.26 308.42,282.43 309.24,284.42 310.06,286.41 310.76,288.15 311.46,289.89 312.05,291.82 312.64,293.75 313.44,294.93 314.24,296.10 314.97,297.24 315.69,298.39 316.33,299.43 316.96,300.48 317.55,301.49 318.14,302.49 319.04,303.89 319.94,305.29 320.62,306.85 321.29,308.41 321.92,309.97 322.54,311.52 322.73,312.82 322.91,314.11 322.97,315.46 323.03,316.81 323.07,318.28 323.11,319.75 323.13,321.25 323.16,322.74 323.37,324.59 323.58,326.45 323.72,327.73 323.86,329.02 323.92,330.16 323.97,331.30 323.92,332.94 323.86,334.59 324.07,335.89 324.28,337.19 324.43,338.54 324.57,339.89 324.56,341.67 324.55,343.44 324.68,345.46 324.81,347.49 325.10,349.83 325.38,352.16 325.48,354.71 325.57,357.25 326.12,359.27 326.67,361.28 326.92,363.50 327.18,365.71 327.55,367.70 327.92,369.69 328.16,371.48 328.39,373.28 328.55,374.62 328.72,375.96 328.82,377.41 328.91,378.85 328.97,380.33 329.03,381.81 329.18,383.40 329.32,384.99 329.41,387.08 329.50,389.18 329.59,390.62 329.68,392.06 329.39,394.25 329.10,396.44 329.02,397.94 328.94,399.44 328.58,400.83 328.22,402.22 327.74,404.51 327.26,406.81 326.78,408.07 326.29,409.34 325.73,411.26 325.16,413.17 325.12,414.24 325.08,415.31 325.09,416.57 325.09,417.83 325.10,419.10 325.11,420.37 324.67,421.55 324.23,422.73 323.76,424.82 323.29,426.91 322.45,428.52 321.61,430.14 322.04,431.22 322.47,432.29 322.07,434.15 321.67,436.02 321.59,437.19 321.51,438.37 321.51,439.82 321.51,441.27 321.48,442.76 321.45,444.26 321.00,445.52 320.54,446.77 319.99,447.96 319.44,449.14 318.95,450.15 318.45,451.15 318.01,452.46 317.57,453.77 317.14,454.97 316.70,456.18 316.22,457.14 315.74,458.10 315.20,460.06 314.65,462.02 314.09,464.26 313.53,466.51 312.97,467.78 312.40,469.05 311.87,470.13 311.35,471.22 310.36,472.73 309.37,474.25 308.61,475.69 307.85,477.13 306.74,478.92 305.64,480.71 305.01,481.61 304.39,482.50 303.46,483.69 302.52,484.89 301.38,486.55 300.23,488.21 299.37,489.11 298.51,490.01 297.29,491.39 296.06,492.76 295.06,493.70 294.05,494.64 292.99,495.34 291.93,496.03 290.42,497.05 288.91,498.06 287.91,498.58 286.90,499.10 285.90,499.60 284.89,500.10 283.89,500.58 282.89,501.07 281.49,502.24 280.08,503.41 279.01,504.10 277.94,504.79 275.57,506.24 273.19,507.69 272.28,508.37 271.38,509.04 270.21,509.76 269.04,510.48 267.54,511.10 266.04,511.73 263.96,512.78 261.88,513.82 260.84,514.31 259.79,514.79 258.26,515.78 256.72,516.77 255.11,517.50 253.49,518.23 252.41,518.66 251.32,519.09 249.61,519.80 247.90,520.52 246.36,521.54 244.82,522.55 243.27,523.65 241.71,524.74 239.50,526.39 237.28,528.04 236.76,528.17 236.24,528.29 235.71,528.24 235.18,528.20 234.69,527.98 234.20,527.77 233.80,527.41 233.41,527.05 233.15,526.58 232.88,526.12 232.79,525.59 232.69,525.06 232.77,524.53 232.84,524.00 233.08,523.53 233.32,523.05 233.70,522.67 234.08,522.30 234.56,522.06 235.04,521.83 235.57,521.76 236.11,521.69 236.63,521.80 237.15,521.90 237.62,522.17 238.08,522.43 238.44,522.83 238.79,523.23 239.00,523.72 239.21,524.22 239.25,524.75 239.29,525.28 239.16,525.80 239.02,526.32 238.73,526.77 238.44,527.22 238.02,527.55 237.60,527.88 237.10,528.06 236.60,528.25 236.06,528.26 235.53,528.27 235.02,528.11 234.51,527.95 234.07,527.63 233.64,527.32 233.33,526.88 233.02,526.44 232.87,525.93 232.72,525.42 232.73,524.89 232.75,524.35 232.94,523.85 233.13,523.35 233.47,522.93 233.80,522.52 234.26,522.23 234.71,521.95 234.71,521.95 234.71,521.95 235.79,521.25 236.86,520.54 237.90,520.06 238.93,519.58 239.97,518.75 241.01,517.93 242.77,516.92 244.54,515.90 246.05,515.43 247.57,514.95 249.30,514.19 251.02,513.43 253.27,512.15 255.52,510.88 256.48,510.29 257.43,509.71 258.58,509.18 259.72,508.66 260.73,508.23 261.75,507.81 262.78,507.21 263.82,506.60 264.93,506.10 266.05,505.60 266.98,505.03 267.90,504.46 270.17,502.97 272.44,501.47 273.54,500.52 274.64,499.56 276.09,498.49 277.55,497.41 278.78,496.42 280.02,495.44 280.99,494.93 281.97,494.41 283.77,493.43 285.57,492.45 287.00,491.46 288.44,490.47 289.56,489.62 290.68,488.76 291.65,488.12 292.61,487.48 293.14,486.55 293.67,485.62 294.51,484.72 295.34,483.83 295.87,482.86 296.39,481.90 297.36,480.85 298.33,479.80 298.83,478.84 299.34,477.88 300.29,476.78 301.25,475.69 302.08,473.95 302.91,472.20 303.47,471.11 304.03,470.02 304.98,468.63 305.92,467.24 306.65,465.41 307.38,463.57 307.61,462.46 307.85,461.34 308.28,460.00 308.71,458.66 309.13,456.91 309.54,455.17 310.19,453.72 310.83,452.26 311.31,451.19 311.79,450.13 312.18,448.74 312.57,447.36 313.18,446.36 313.79,445.35 314.14,444.09 314.50,442.83 314.51,441.00 314.51,439.18 314.56,438.02 314.61,436.85 314.89,435.25 315.17,433.65 315.37,432.42 315.56,431.20 315.62,430.05 315.69,428.91 316.47,427.48 317.24,426.05 317.52,424.99 317.80,423.93 317.92,422.71 318.04,421.49 318.46,420.26 318.88,419.03 318.94,417.52 318.99,416.00 319.15,414.59 319.32,413.17 319.89,411.54 320.45,409.91 321.10,407.63 321.75,405.34 322.03,404.22 322.31,403.10 322.76,401.12 323.21,399.14 323.47,396.97 323.74,394.79 324.03,393.43 324.31,392.06 324.40,390.62 324.49,389.18 324.58,387.09 324.66,385.01 324.79,383.43 324.92,381.85 324.96,380.39 324.99,378.94 325.02,377.55 325.05,376.16 325.07,374.88 325.09,373.61 324.98,371.95 324.87,370.29 324.43,368.21 323.99,366.13 323.69,364.19 323.40,362.25 322.65,359.89 321.89,357.54 321.63,355.21 321.37,352.88 320.81,350.51 320.26,348.15 319.77,345.88 319.28,343.61 319.16,342.03 319.05,340.46 318.94,339.35 318.83,338.24 318.45,336.46 318.06,334.69 317.96,333.14 317.86,331.60 317.71,329.71 317.56,327.82 317.20,326.22 316.83,324.63 316.84,322.84 316.85,321.04 316.88,319.56 316.90,318.08 316.94,316.70 316.97,315.32 317.06,313.97 317.14,312.62 316.68,311.15 316.22,309.69 315.82,308.31 315.41,306.94 314.85,305.70 314.30,304.46 313.84,303.40 313.38,302.35 312.90,301.26 312.42,300.17 311.88,299.00 311.34,297.82 310.51,296.24 309.68,294.66 309.14,292.82 308.59,290.98 307.99,289.26 307.38,287.54 306.47,285.44 305.56,283.35 304.87,281.32 304.18,279.28 303.19,276.99 302.20,274.71 301.32,272.13 300.44,269.56 299.83,267.63 299.22,265.71 298.54,263.87 297.86,262.04 296.91,260.10 295.96,258.15 295.33,256.43 294.70,254.71 293.83,252.45 292.96,250.19 292.82,248.97 292.68,247.76 292.30,246.22 291.92,244.68 291.78,242.95 291.63,241.22 291.10,238.87 290.57,236.53 290.01,234.55 289.46,232.57 288.93,231.39 288.40,230.21 287.94,229.06 287.49,227.90 286.97,226.25 286.46,224.61 285.95,222.69 285.44,220.78 285.06,219.29 284.67,217.81 284.09,216.39 283.50,214.96 283.01,213.47 282.53,211.98 282.06,210.56 281.60,209.14 281.13,207.06 280.65,204.98 279.67,203.62 278.70,202.26 278.19,200.63 277.68,199.00 276.71,197.44 275.74,195.89 275.17,193.92 274.59,191.96 274.19,190.22 273.78,188.47 273.34,186.73 272.89,184.98 271.86,183.01 270.83,181.05 270.30,179.20 269.77,177.35 269.11,176.44 268.45,175.54 267.55,174.17 266.65,172.80 266.14,171.80 265.63,170.80 265.09,169.78 264.55,168.77 263.96,167.73 263.36,166.70 262.02,164.51 260.69,162.32 260.13,161.25 259.57,160.17 259.03,158.39 258.49,156.60 257.95,155.45 257.41,154.29 256.49,152.42 255.58,150.55 254.59,148.70 253.60,146.84 252.99,145.95 252.37,145.05 251.87,144.11 251.37,143.17 250.55,141.68 249.74,140.20 248.67,138.46 247.61,136.73 246.63,134.78 245.65,132.83 245.22,131.64 244.79,130.46 243.78,129.36 242.77,128.26 242.30,127.19 241.83,126.11 240.76,124.31 239.70,122.50 239.18,121.42 238.66,120.34 238.23,119.16 237.80,117.98 236.79,116.57 235.79,115.16 234.76,113.89 233.74,112.61 233.28,111.49 232.83,110.36 231.26,108.51 229.70,106.65 228.95,105.15 228.20,103.64 227.43,102.75 226.67,101.86 226.21,100.27 225.75,98.69 224.69,96.95 223.64,95.22 222.63,93.60 221.62,91.98 220.72,90.30 219.82,88.62 219.23,87.70 218.64,86.78 218.14,85.75 217.64,84.71 217.15,83.64 216.65,82.56 215.99,80.61 215.33,78.67 213.98,76.50 212.63,74.34 212.03,73.28 211.42,72.21 210.93,71.08 210.45,69.95 209.94,68.97 209.43,68.00 208.93,67.05 208.42,66.10 207.54,64.50 206.65,62.89 206.06,61.98 205.48,61.07 204.99,59.74 204.50,58.42 203.58,57.04 202.67,55.67 202.24,54.33 201.82,52.99 200.80,51.32 199.79,49.64 198.82,47.73 197.85,45.82 196.72,44.21 195.59,42.60 194.66,41.56 193.73,40.53 192.94,39.56 192.14,38.59 191.08,37.81 190.02,37.02 189.08,35.79 188.13,34.56 187.10,33.94 186.07,33.31 184.63,31.89 183.19,30.46 181.43,29.23 179.67,27.99 178.41,27.24 177.15,26.49 176.05,25.88 174.95,25.26 173.73,24.52 172.51,23.79 171.11,22.86 169.70,21.93 168.83,21.24 167.95,20.54 166.76,19.91 165.57,19.28 164.34,18.62 163.12,17.96 162.05,17.49 160.98,17.03 159.53,16.49 158.07,15.95 157.02,15.42 155.98,14.88 154.41,13.86 152.85,12.85 151.55,12.56 150.24,12.28 148.67,11.59 147.10,10.89 145.26,10.20 143.42,9.51 141.80,8.94 140.19,8.37 138.60,7.72 137.02,7.08 134.77,6.23 132.53,5.39 130.51,4.89 128.49,4.39 126.67,3.90 124.85,3.40 123.49,3.24 122.12,3.07 120.59,2.27 119.05,1.48 117.74,1.35 116.42,1.22 114.80,0.84 113.18,0.45 112.02,0.40 110.86,0.35 109.26,0.07 107.66,-0.20 106.45,-0.40 105.24,-0.59 103.68,-0.64 102.11,-0.69 100.79,-0.83 99.47,-0.98 98.29,-1.40 97.11,-1.82 95.81,-1.97 94.50,-2.13 93.17,-2.57 91.83,-3.02 90.02,-3.13 88.21,-3.24 86.24,-3.26 84.28,-3.29 83.18,-3.47 82.09,-3.66 80.74,-3.67 79.39,-3.68 78.30,-3.66 77.21,-3.63 76.11,-3.65 75.01,-3.68 73.46,-3.68 71.91,-3.68 70.14,-3.67 68.36,-3.65 66.69,-3.63 65.01,-3.61 63.47,-3.61 61.92,-3.60 60.16,-3.58 58.39,-3.55 56.78,-3.53 55.18,-3.50 54.00,-3.50 52.82,-3.51 50.99,-3.51 49.17,-3.51 47.96,-3.52 46.75,-3.53 45.30,-3.52 43.84,-3.51 42.09,-3.51 40.34,-3.51 38.86,-3.32 37.38,-3.14 35.59,-2.90 33.81,-2.67 32.05,-2.17 30.30,-1.67 29.00,-1.53 27.70,-1.39 25.79,-1.03 23.88,-0.68 22.71,-0.20 21.54,0.27 20.24,0.36 18.94,0.46 16.93,0.92 14.91,1.39 12.89,1.84 10.86,2.28 9.04,2.62 7.22,2.96 6.15,2.90 5.08,2.84 3.69,2.77 2.3,2.70 1.15,2.68 0,2.66 -0.31,2.62 -0.63,2.59 -0.93,2.47 -1.24,2.36 -1.50,2.17 -1.76,1.99 -1.98,1.75 -2.19,1.51 -2.34,1.23 -2.49,0.94 -2.57,0.63 -2.64,0.32 -2.64,-0.00 -2.64,-0.32 -2.57,-0.63 -2.49,-0.94 -2.34,-1.23 -2.19,-1.51 -1.98,-1.75 -1.76,-1.99 -1.50,-2.18 -1.23,-2.36 -0.93,-2.47 -0.63,-2.59 -0.31,-2.62 0.00,-2.66 0.00,-2.66 L 0,-2.66 Z"></path></g><g transform="translate(1370 711) rotate(0 -6 36)" stroke="none"><path fill="#000000" d="M 1.89,1.89 Q 1.89,1.89 1.34,2.48 0.80,3.08 -0.14,4.49 -1.08,5.91 -2.08,7.04 -3.07,8.18 -4.03,9.76 -4.99,11.34 -5.68,12.26 -6.37,13.18 -6.93,14.10 -7.49,15.02 -8.12,15.89 -8.75,16.76 -9.82,17.97 -10.89,19.17 -11.59,20.50 -12.29,21.82 -13.25,22.81 -14.22,23.80 -14.43,24.99 -14.63,26.18 -15.18,27.12 -15.73,28.06 -16.22,29.09 -16.71,30.12 -17.59,31.52 -18.46,32.92 -19.42,34.53 -20.37,36.13 -21.00,37.01 -21.62,37.89 -22.55,39.17 -23.48,40.45 -24.09,41.71 -24.70,42.97 -25.14,44.14 -25.57,45.31 -26.38,46.14 -27.19,46.96 -26.90,48.03 -26.61,49.10 -25.90,51.28 -25.18,53.46 -24.85,54.64 -24.51,55.81 -23.32,55.21 -22.13,54.61 -20.18,55.08 -18.23,55.55 -16.23,56.43 -14.23,57.32 -12.30,57.88 -10.38,58.44 -9.28,58.94 -8.19,59.44 -7.01,59.92 -5.83,60.41 -4.75,61.01 -3.68,61.61 -2.68,62.04 -1.68,62.47 -0.60,62.64 0.47,62.81 2.07,63.66 3.68,64.51 5.78,65.10 7.89,65.69 9.32,66.20 10.75,66.70 11.86,67.26 12.98,67.82 14.37,68.02 15.76,68.22 17.06,68.65 18.36,69.07 18.82,69.21 19.28,69.35 19.67,69.62 20.06,69.89 20.34,70.28 20.62,70.66 20.76,71.12 20.91,71.57 20.90,72.05 20.89,72.52 20.73,72.97 20.57,73.42 20.28,73.79 19.98,74.17 19.58,74.43 19.18,74.69 18.72,74.81 18.26,74.93 17.79,74.89 17.31,74.86 16.87,74.67 16.43,74.49 16.08,74.18 15.72,73.86 15.48,73.45 15.24,73.04 15.15,72.57 15.05,72.10 15.11,71.63 15.17,71.16 15.38,70.73 15.59,70.30 15.92,69.96 16.26,69.62 16.68,69.40 17.10,69.19 17.58,69.12 18.05,69.05 18.52,69.14 18.98,69.22 19.40,69.45 19.82,69.68 20.14,70.04 20.46,70.39 20.65,70.82 20.85,71.26 20.89,71.73 20.93,72.21 20.82,72.67 20.71,73.13 20.46,73.54 20.20,73.94 19.84,74.24 19.47,74.54 19.02,74.71 18.58,74.88 18.10,74.90 17.62,74.92 17.62,74.92 17.63,74.92 15.31,74.19 12.99,73.46 11.01,72.69 9.04,71.92 7.63,71.51 6.21,71.10 4.94,70.73 3.68,70.37 1.56,69.46 -0.54,68.56 -2.23,68.31 -3.91,68.06 -5.94,67.11 -7.97,66.17 -9.37,65.70 -10.76,65.24 -12.44,64.56 -14.12,63.89 -16.45,63.20 -18.78,62.51 -20.48,61.94 -22.18,61.37 -23.56,61.33 -24.93,61.30 -26.48,60.98 -28.03,60.65 -28.99,59.60 -29.95,58.56 -30.57,57.51 -31.20,56.47 -31.50,54.70 -31.80,52.93 -32.58,51.18 -33.36,49.42 -33.34,48.23 -33.33,47.04 -33.06,45.55 -32.80,44.05 -32.08,43.19 -31.37,42.32 -30.77,40.84 -30.17,39.37 -29.60,38.24 -29.03,37.11 -28.37,36.06 -27.72,35.01 -26.89,34.01 -26.06,33.02 -25.52,31.97 -24.97,30.93 -23.96,29.57 -22.95,28.20 -22.45,27.23 -21.94,26.25 -21.41,25.24 -20.89,24.22 -20.34,23.12 -19.79,22.02 -19.07,20.65 -18.36,19.29 -17.46,18.52 -16.55,17.75 -15.55,15.92 -14.55,14.09 -13.62,13.01 -12.70,11.92 -12.03,10.78 -11.37,9.63 -10.01,7.95 -8.65,6.27 -7.97,5.13 -7.29,3.99 -5.92,2.62 -4.55,1.26 -3.83,0.23 -3.10,-0.78 -2.49,-1.33 -1.89,-1.89 -1.63,-2.09 -1.38,-2.28 -1.08,-2.42 -0.79,-2.55 -0.47,-2.61 -0.16,-2.67 0.16,-2.65 0.48,-2.63 0.79,-2.53 1.09,-2.43 1.37,-2.27 1.65,-2.10 1.87,-1.87 2.10,-1.64 2.27,-1.37 2.43,-1.09 2.53,-0.78 2.63,-0.48 2.65,-0.16 2.67,0.16 2.61,0.47 2.55,0.79 2.42,1.09 2.28,1.38 2.09,1.63 1.89,1.89 1.89,1.89 L 1.89,1.89 Z"></path></g><g stroke-linecap="round" transform="translate(230 594) rotate(0 495.5 244)"><path d="M-0.47 -0.63 C205.92 3.7, 413.4 2.26, 991.01 0.67 M-0.2 -0.37 C214.07 -4.26, 427.96 -3.78, 990.74 -0.33 M991.05 0.37 C992.95 138.78, 992.42 278.07, 991.07 487.26 M991.14 0.21 C989.95 99.36, 989.99 198.2, 991.27 488.11 M990.78 488.79 C615.09 486.05, 237.03 485.89, -0.09 488.32 M991.16 487.71 C775.93 490.29, 561.08 490.3, -0.26 488.17 M0.07 487.92 C1.51 321.08, 2.19 154.34, 0.28 -0.07 M-0.13 487.81 C0.11 318.65, 0.64 149.95, -0.21 0.06" stroke="#000000" stroke-width="1" fill="none"></path></g><g stroke-linecap="round" transform="translate(330 793) rotate(0 392.5 37)"><path d="M0.01 0.53 C173.64 -1.79, 347.24 -1.92, 785.42 0.58 M0.22 -0.23 C176.71 1.5, 352.93 1.08, 784.89 0.15 M785.93 -1.16 C784.06 21.9, 783.88 41.19, 783.31 72.59 M784.47 0.09 C786.03 15.7, 786.21 32.66, 785.26 73.24 M784.9 74.24 C494.89 77.05, 206.15 77.27, 0.54 73.77 M784.81 74.07 C494.34 75.88, 202.75 75.56, 0.4 73.93 M0.15 73.95 C1.89 54.93, 2.16 35.85, -1.98 0.78 M-0.8 74.15 C0.21 53.72, 0.98 32.07, 0.82 0.64" stroke="#000000" stroke-width="1" fill="none"></path></g><g stroke-linecap="round" transform="translate(335 904) rotate(0 388.5 52)"><path d="M-0.23 -0.46 C303.31 1.36, 607.01 2.4, 777.68 0.53 M0.13 0.06 C164.91 -2.14, 330.54 -2.03, 776.72 0.24 M777.56 -1.43 C775.82 38.91, 777.44 79.61, 777.66 105.04 M776.25 -0.92 C776.93 33.73, 776.59 68.85, 776.75 104.74 M777.34 103.65 C607.57 101.64, 437.55 101.34, 0.05 104.77 M776.94 103.89 C468.42 106.36, 159.45 106.36, -0.07 103.64 M0.01 102.52 C-2.74 75.43, 0.22 44.48, -1.11 1.5 M0.61 104.54 C0.48 75.96, 1.52 45.98, -0.53 -0.39" stroke="#000000" stroke-width="1" fill="none"></path></g><g stroke-linecap="round" transform="translate(337 1054) rotate(0 389.5 14)"><path d="M-0.14 0.48 C198.83 1.6, 396.88 1.99, 778.57 0.43 M-0.29 -0.31 C176.24 0.36, 352.56 -0.28, 779.19 0.36 M780.05 0.19 C777.37 7.54, 778.87 15.5, 779.62 28.56 M778.39 -0.86 C778.25 8.23, 778.3 15.17, 779.21 27.66 M779.39 28.46 C600.39 27.44, 421.13 27.05, -0.55 27.22 M779.27 27.81 C496.3 31.04, 214.26 30.96, 0.22 28.34 M-0.3 28.56 C1.45 20.96, -1.7 12.86, -0.42 -1.74 M-0.5 28.37 C0.32 17.61, -0.68 5.9, -0.34 -0.43" stroke="#000000" stroke-width="1" fill="none"></path></g><g transform="translate(499 749) rotate(0 79.5 11.5)"><text x="0" y="18" font-family="Helvetica, Segoe UI Emoji" font-size="20px" fill="#000000" text-anchor="start" style="white-space: pre;" direction="ltr">Your story pieces:</text></g><g transform="translate(360 657) rotate(0 74 11.5)"><text x="0" y="18" font-family="Helvetica, Segoe UI Emoji" font-size="20px" fill="#000000" text-anchor="start" style="white-space: pre;" direction="ltr">create new story</text></g><g transform="translate(952 662) rotate(0 89.5 11.5)"><text x="0" y="18" font-family="Helvetica, Segoe UI Emoji" font-size="20px" fill="#000000" text-anchor="start" style="white-space: pre;" direction="ltr">add to existing story</text></g><g transform="translate(330 669) rotate(0 -160 301)" stroke="none"><path fill="#000000" d="M 0.46,2.33 Q 0.46,2.33 -0.96,2.62 -2.40,2.91 -4.10,3.21 -5.81,3.50 -8.64,4.21 -11.48,4.91 -13.27,5.29 -15.05,5.66 -16.19,6.10 -17.34,6.54 -18.37,7.02 -19.40,7.50 -20.59,8.10 -21.79,8.69 -23.00,9.04 -24.22,9.39 -25.33,9.95 -26.43,10.51 -27.59,10.89 -28.74,11.27 -30.25,11.58 -31.75,11.90 -33.63,12.46 -35.51,13.03 -36.50,13.62 -37.48,14.21 -39.16,14.69 -40.85,15.17 -42.57,15.64 -44.30,16.11 -45.58,16.20 -46.87,16.29 -48.08,16.72 -49.29,17.15 -50.64,17.25 -51.99,17.36 -53.19,17.75 -54.40,18.15 -55.73,18.27 -57.07,18.39 -58.65,19.23 -60.22,20.06 -61.37,20.21 -62.51,20.35 -63.87,20.79 -65.22,21.22 -66.79,21.70 -68.36,22.18 -70.22,23.09 -72.08,24.01 -74.05,24.56 -76.02,25.11 -77.55,25.60 -79.09,26.09 -80.15,26.72 -81.21,27.34 -82.83,27.94 -84.44,28.53 -85.75,28.79 -87.06,29.04 -89.04,29.52 -91.03,30.00 -92.14,30.55 -93.26,31.11 -94.67,31.67 -96.08,32.22 -97.10,32.67 -98.12,33.11 -99.94,33.89 -101.76,34.68 -102.88,35.25 -104.00,35.82 -105.05,36.35 -106.10,36.87 -107.34,37.57 -108.57,38.26 -110.18,38.92 -111.78,39.59 -113.34,40.13 -114.89,40.67 -116.41,41.16 -117.94,41.66 -119.85,42.84 -121.76,44.02 -123.33,44.71 -124.89,45.40 -126.03,45.95 -127.17,46.50 -129.18,47.59 -131.19,48.68 -132.23,49.18 -133.26,49.68 -134.27,50.18 -135.27,50.69 -137.17,52.04 -139.07,53.40 -140.13,53.99 -141.18,54.59 -142.43,55.33 -143.67,56.07 -144.69,56.54 -145.72,57.02 -147.72,58.11 -149.73,59.20 -151.47,60.40 -153.20,61.59 -154.21,62.15 -155.22,62.71 -157.13,64.08 -159.03,65.45 -160.09,66.05 -161.15,66.65 -162.17,67.19 -163.20,67.73 -164.94,68.95 -166.69,70.16 -167.84,70.83 -169.00,71.50 -170.06,72.08 -171.13,72.66 -173.08,74.05 -175.02,75.43 -176.08,76.03 -177.14,76.63 -178.26,77.51 -179.38,78.40 -181.02,79.26 -182.67,80.13 -185.20,81.71 -187.73,83.29 -188.75,84.02 -189.77,84.75 -191.77,86.11 -193.77,87.47 -195.91,88.66 -198.05,89.85 -199.77,90.88 -201.49,91.92 -203.07,92.94 -204.66,93.96 -206.14,95.17 -207.61,96.38 -209.54,97.54 -211.47,98.69 -213.04,99.94 -214.61,101.20 -216.49,102.62 -218.36,104.04 -219.99,105.47 -221.61,106.89 -223.20,108.14 -224.79,109.39 -226.57,110.99 -228.35,112.59 -229.64,114.10 -230.93,115.61 -232.41,116.95 -233.89,118.29 -235.34,119.66 -236.79,121.03 -238.24,122.69 -239.70,124.36 -240.87,125.93 -242.04,127.51 -242.73,128.77 -243.42,130.03 -244.30,131.46 -245.18,132.89 -246.15,134.17 -247.12,135.46 -248.05,136.98 -248.97,138.50 -249.98,140.08 -250.99,141.66 -251.99,143.20 -252.99,144.73 -254.00,146.69 -255.00,148.64 -256.04,150.23 -257.08,151.81 -257.69,153.20 -258.29,154.59 -259.21,156.37 -260.12,158.14 -261.10,159.82 -262.08,161.49 -263.06,163.07 -264.05,164.65 -265.04,166.62 -266.04,168.60 -267.08,170.40 -268.12,172.20 -268.76,173.75 -269.40,175.30 -270.31,177.38 -271.23,179.47 -271.91,181.45 -272.58,183.43 -273.46,185.27 -274.34,187.11 -274.96,188.91 -275.57,190.71 -276.13,192.62 -276.69,194.53 -277.18,196.25 -277.67,197.98 -278.17,199.82 -278.67,201.66 -278.81,203.22 -278.96,204.77 -279.31,206.44 -279.66,208.11 -280.08,209.69 -280.50,211.27 -280.61,212.64 -280.73,214.01 -280.77,215.45 -280.81,216.89 -281.13,218.55 -281.45,220.22 -281.51,221.34 -281.58,222.46 -281.92,223.77 -282.26,225.09 -282.67,227.02 -283.08,228.96 -283.16,230.43 -283.25,231.90 -283.64,233.02 -284.03,234.15 -284.42,236.01 -284.80,237.87 -285.35,239.31 -285.90,240.74 -286.40,241.87 -286.91,243.00 -287.84,244.49 -288.78,245.97 -289.77,247.47 -290.75,248.97 -291.65,249.92 -292.54,250.86 -294.26,252.30 -295.98,253.73 -297.43,255.14 -298.88,256.54 -300.12,257.89 -301.36,259.23 -302.54,260.21 -303.72,261.19 -305.13,262.87 -306.54,264.55 -307.58,266.26 -308.62,267.97 -309.10,269.08 -309.58,270.18 -310.51,271.71 -311.44,273.24 -312.12,275.34 -312.80,277.43 -313.27,278.69 -313.74,279.95 -314.29,282.34 -314.84,284.73 -315.32,286.00 -315.80,287.27 -316.02,289.65 -316.23,292.03 -316.59,293.48 -316.94,294.93 -317.09,296.35 -317.25,297.76 -317.28,299.95 -317.32,302.15 -317.29,304.18 -317.26,306.21 -317.28,307.58 -317.29,308.96 -317.26,311.07 -317.23,313.17 -317.21,314.27 -317.20,315.37 -317.17,317.43 -317.14,319.49 -317.11,321.50 -317.08,323.51 -317.06,325.51 -317.04,327.52 -317.01,329.23 -316.97,330.94 -316.96,332.77 -316.94,334.59 -316.91,336.27 -316.89,337.96 -316.91,339.12 -316.93,340.28 -316.49,342.28 -316.06,344.29 -315.58,345.81 -315.10,347.33 -315.01,348.41 -314.91,349.48 -314.51,351.38 -314.10,353.28 -313.68,355.86 -313.25,358.43 -312.99,359.77 -312.74,361.10 -312.08,363.06 -311.42,365.02 -311.31,366.15 -311.19,367.28 -310.54,369.24 -309.88,371.20 -309.65,372.54 -309.41,373.88 -309.11,375.08 -308.80,376.27 -308.41,377.68 -308.03,379.08 -307.87,381.10 -307.72,383.12 -307.39,384.23 -307.06,385.35 -306.65,386.75 -306.23,388.15 -306.06,390.14 -305.88,392.14 -305.78,393.52 -305.67,394.89 -305.38,396.12 -305.09,397.35 -304.78,399.39 -304.47,401.43 -304.47,403.04 -304.48,404.65 -304.16,406.22 -303.85,407.78 -303.66,408.97 -303.47,410.15 -302.92,411.69 -302.38,413.23 -302.29,414.31 -302.20,415.39 -301.76,417.58 -301.33,419.77 -300.62,421.50 -299.92,423.23 -299.36,425.68 -298.80,428.12 -298.62,429.48 -298.43,430.85 -298.14,432.05 -297.85,433.26 -297.28,434.47 -296.70,435.68 -296.13,437.64 -295.56,439.60 -295.24,440.73 -294.92,441.86 -294.39,443.65 -293.86,445.44 -293.29,446.76 -292.72,448.09 -292.39,449.78 -292.06,451.47 -291.70,452.84 -291.33,454.21 -290.88,455.29 -290.43,456.37 -289.94,457.39 -289.45,458.41 -289.13,459.68 -288.81,460.95 -288.19,462.57 -287.57,464.20 -287.01,465.79 -286.46,467.37 -285.54,469.15 -284.63,470.93 -283.95,472.53 -283.28,474.13 -282.55,475.67 -281.82,477.21 -281.08,478.67 -280.35,480.12 -279.77,481.68 -279.19,483.24 -278.52,484.26 -277.85,485.28 -276.90,486.72 -275.95,488.16 -275.39,489.31 -274.82,490.46 -274.44,491.79 -274.07,493.12 -273.41,494.18 -272.76,495.24 -271.78,497.15 -270.79,499.06 -270.11,500.42 -269.43,501.79 -268.20,503.89 -266.97,505.99 -265.67,507.95 -264.37,509.92 -263.59,511.63 -262.80,513.35 -262.02,514.45 -261.24,515.55 -259.68,517.61 -258.12,519.66 -257.40,520.84 -256.68,522.01 -255.94,522.89 -255.21,523.78 -254.45,524.91 -253.70,526.05 -253.08,527.12 -252.47,528.18 -251.19,529.96 -249.92,531.74 -249.43,532.73 -248.94,533.72 -248.23,534.97 -247.52,536.23 -246.46,537.72 -245.40,539.20 -244.78,540.81 -244.17,542.41 -243.98,543.76 -243.79,545.11 -243.73,546.68 -243.67,548.24 -243.13,549.77 -242.58,551.30 -242.03,552.87 -241.48,554.45 -240.59,556.35 -239.70,558.26 -239.44,559.49 -239.17,560.72 -238.07,562.30 -236.96,563.89 -236.46,564.95 -235.96,566.02 -235.13,567.06 -234.29,568.09 -233.60,569.58 -232.90,571.07 -232.45,572.06 -232.01,573.05 -230.90,574.32 -229.79,575.59 -228.56,577.25 -227.34,578.92 -225.89,580.43 -224.44,581.95 -223.09,583.25 -221.75,584.56 -220.76,585.02 -219.77,585.48 -218.16,585.93 -216.54,586.38 -215.22,586.86 -213.89,587.35 -212.53,588.22 -211.16,589.09 -210.01,589.27 -208.86,589.44 -208.06,590.20 -207.27,590.95 -206.20,591.24 -205.13,591.54 -203.90,592.01 -202.66,592.48 -201.82,593.30 -200.98,594.12 -199.71,594.75 -198.44,595.37 -197.52,595.94 -196.60,596.50 -194.66,597.64 -192.72,598.79 -192.24,599.08 -191.76,599.36 -191.40,599.79 -191.04,600.21 -190.83,600.73 -190.63,601.25 -190.60,601.81 -190.56,602.37 -190.71,602.90 -190.86,603.44 -191.18,603.90 -191.49,604.37 -191.93,604.70 -192.38,605.04 -192.91,605.22 -193.43,605.40 -193.99,605.40 -194.55,605.40 -195.08,605.22 -195.61,605.04 -196.05,604.71 -196.50,604.37 -196.81,603.91 -197.13,603.45 -197.27,602.91 -197.42,602.37 -197.39,601.81 -197.36,601.26 -197.16,600.74 -196.95,600.22 -196.59,599.79 -196.23,599.37 -195.75,599.08 -195.27,598.79 -194.73,598.67 -194.18,598.55 -193.63,598.61 -193.07,598.67 -192.57,598.90 -192.06,599.14 -191.66,599.52 -191.25,599.91 -190.99,600.40 -190.73,600.89 -190.64,601.44 -190.55,601.99 -190.64,602.54 -190.73,603.09 -190.99,603.59 -191.25,604.08 -191.65,604.47 -192.06,604.85 -192.56,605.08 -193.07,605.32 -193.63,605.38 -194.18,605.44 -194.73,605.32 -195.27,605.20 -195.27,605.20 -195.27,605.20 -197.14,604.05 -199.02,602.89 -200.43,602.10 -201.84,601.30 -202.93,600.58 -204.01,599.86 -205.38,598.95 -206.74,598.05 -207.85,597.53 -208.96,597.00 -210.85,596.05 -212.75,595.11 -213.95,594.45 -215.15,593.80 -216.51,593.40 -217.86,593.01 -219.54,592.12 -221.23,591.24 -222.62,590.43 -224.01,589.62 -225.18,588.99 -226.35,588.36 -227.72,587.30 -229.09,586.23 -229.86,585.07 -230.62,583.92 -232.01,582.35 -233.39,580.78 -234.33,579.45 -235.28,578.12 -236.37,576.97 -237.47,575.83 -238.02,574.72 -238.58,573.62 -239.46,572.16 -240.34,570.69 -240.96,569.76 -241.59,568.82 -242.47,567.03 -243.35,565.23 -244.36,563.89 -245.37,562.54 -245.86,561.23 -246.35,559.92 -246.96,558.46 -247.58,556.99 -248.10,555.50 -248.62,554.00 -249.09,552.99 -249.56,551.98 -249.93,549.63 -250.30,547.29 -250.05,545.92 -249.81,544.54 -250.41,543.54 -251.01,542.53 -251.49,541.23 -251.97,539.93 -252.48,538.80 -252.99,537.68 -253.71,536.24 -254.43,534.80 -255.81,532.82 -257.19,530.83 -258.25,528.99 -259.31,527.14 -260.28,525.95 -261.24,524.76 -261.84,523.75 -262.43,522.75 -263.26,521.64 -264.09,520.53 -264.80,519.63 -265.51,518.74 -266.59,517.35 -267.67,515.95 -269.13,513.59 -270.60,511.24 -271.59,509.93 -272.59,508.61 -273.55,507.07 -274.52,505.53 -275.44,504.15 -276.36,502.76 -276.84,501.35 -277.33,499.95 -278.35,498.30 -279.36,496.65 -279.88,495.56 -280.40,494.46 -280.87,493.26 -281.35,492.05 -281.80,491.01 -282.26,489.97 -283.23,488.42 -284.21,486.87 -284.80,485.44 -285.39,484.02 -285.85,482.73 -286.31,481.45 -287.26,479.51 -288.21,477.58 -288.64,476.20 -289.08,474.82 -289.66,473.65 -290.25,472.48 -291.17,470.01 -292.10,467.55 -292.50,465.82 -292.90,464.09 -293.43,462.23 -293.96,460.37 -294.43,459.22 -294.90,458.06 -295.36,456.73 -295.82,455.41 -296.24,453.83 -296.65,452.25 -296.81,451.05 -296.98,449.84 -297.56,448.42 -298.15,447.00 -299.17,444.08 -300.19,441.17 -300.81,439.60 -301.43,438.04 -302.31,436.35 -303.18,434.66 -303.60,433.11 -304.01,431.57 -304.14,430.51 -304.27,429.46 -304.81,427.31 -305.36,425.17 -305.78,424.03 -306.21,422.89 -306.72,420.66 -307.24,418.43 -307.61,417.12 -307.98,415.80 -308.01,414.47 -308.04,413.13 -308.53,411.22 -309.01,409.31 -309.30,407.02 -309.58,404.74 -309.64,403.24 -309.70,401.74 -309.77,400.09 -309.85,398.43 -310.20,396.81 -310.55,395.20 -310.61,393.93 -310.66,392.66 -310.87,391.14 -311.07,389.63 -311.54,388.18 -312.01,386.73 -312.42,385.20 -312.83,383.67 -313.05,382.18 -313.27,380.68 -313.77,379.22 -314.26,377.76 -314.81,375.38 -315.36,372.99 -315.82,371.71 -316.27,370.43 -316.65,369.11 -317.03,367.79 -317.14,366.30 -317.25,364.81 -317.77,363.61 -318.28,362.40 -318.73,360.70 -319.17,359.00 -319.31,357.85 -319.44,356.71 -319.96,354.82 -320.47,352.94 -320.87,351.45 -321.26,349.95 -321.36,348.82 -321.45,347.69 -321.86,346.03 -322.27,344.36 -322.67,342.32 -323.06,340.28 -323.08,339.12 -323.10,337.96 -323.08,336.27 -323.05,334.59 -323.03,332.77 -323.02,330.94 -322.98,329.23 -322.95,327.52 -322.93,325.51 -322.91,323.51 -322.88,321.50 -322.85,319.49 -322.82,317.43 -322.79,315.37 -322.77,314.27 -322.76,313.17 -322.73,311.06 -322.69,308.95 -322.70,307.57 -322.72,306.19 -322.66,304.12 -322.60,302.05 -322.47,299.69 -322.34,297.34 -321.93,294.53 -321.52,291.71 -321.45,290.17 -321.38,288.63 -321.12,286.98 -320.87,285.33 -320.46,284.31 -320.05,283.28 -319.72,282.06 -319.39,280.84 -319.12,279.49 -318.85,278.14 -317.98,275.82 -317.11,273.50 -316.65,272.04 -316.18,270.59 -315.52,269.30 -314.85,268.01 -314.27,266.55 -313.69,265.09 -313.07,264.00 -312.45,262.92 -311.67,261.77 -310.89,260.62 -310.12,259.74 -309.35,258.86 -307.73,257.18 -306.12,255.51 -305.10,254.16 -304.08,252.81 -302.77,251.83 -301.47,250.84 -300.50,249.72 -299.53,248.60 -298.33,247.61 -297.13,246.62 -296.06,245.39 -294.99,244.17 -294.04,242.74 -293.09,241.31 -292.41,240.33 -291.72,239.34 -290.99,237.55 -290.27,235.75 -289.91,234.63 -289.55,233.51 -289.05,232.45 -288.55,231.40 -288.22,229.47 -287.88,227.54 -287.53,226.48 -287.18,225.41 -286.59,223.68 -286.01,221.94 -285.80,220.64 -285.59,219.33 -285.27,217.99 -284.94,216.65 -284.82,215.08 -284.69,213.51 -284.43,211.86 -284.17,210.20 -283.69,208.72 -283.21,207.25 -282.80,205.78 -282.39,204.32 -282.10,202.56 -281.81,200.80 -281.29,198.91 -280.76,197.01 -280.20,195.35 -279.63,193.68 -279.06,191.69 -278.49,189.70 -277.81,187.72 -277.12,185.75 -276.29,184.12 -275.46,182.50 -274.81,180.38 -274.17,178.25 -273.33,176.09 -272.49,173.93 -271.71,172.27 -270.92,170.61 -269.97,168.90 -269.02,167.19 -268.04,164.97 -267.05,162.76 -266.08,161.24 -265.11,159.71 -264.19,158.15 -263.28,156.58 -262.43,154.80 -261.59,153.01 -260.77,151.43 -259.96,149.85 -259.00,148.52 -258.04,147.18 -257.04,144.96 -256.05,142.74 -255.05,141.23 -254.06,139.71 -253.08,138.17 -252.10,136.62 -251.06,134.85 -250.02,133.08 -249.06,132.02 -248.11,130.97 -247.15,129.61 -246.20,128.25 -245.29,127.00 -244.38,125.74 -243.14,124.11 -241.89,122.48 -240.37,120.67 -238.85,118.85 -237.35,117.44 -235.85,116.03 -234.47,114.89 -233.09,113.75 -231.68,112.12 -230.28,110.49 -228.43,108.77 -226.58,107.05 -225.05,105.90 -223.52,104.75 -221.85,103.23 -220.18,101.71 -218.37,100.27 -216.57,98.82 -214.88,97.39 -213.19,95.96 -211.51,94.85 -209.84,93.75 -208.24,92.35 -206.64,90.95 -205.05,89.90 -203.46,88.84 -201.77,87.69 -200.08,86.54 -198.26,85.29 -196.43,84.04 -194.52,82.37 -192.61,80.70 -191.18,79.71 -189.75,78.73 -188.61,78.27 -187.47,77.81 -186.31,76.72 -185.15,75.63 -183.98,74.99 -182.81,74.34 -181.35,73.03 -179.89,71.72 -178.07,70.67 -176.24,69.61 -175.03,68.66 -173.81,67.70 -172.82,67.17 -171.83,66.64 -170.84,66.07 -169.86,65.49 -168.74,64.69 -167.62,63.89 -166.73,63.30 -165.84,62.71 -164.86,62.21 -163.89,61.71 -162.09,60.67 -160.30,59.64 -159.10,58.69 -157.91,57.75 -156.17,56.81 -154.43,55.87 -153.48,55.21 -152.54,54.55 -151.17,53.69 -149.80,52.83 -148.15,52.18 -146.51,51.53 -145.17,50.65 -143.84,49.77 -142.00,48.73 -140.15,47.69 -138.91,46.76 -137.66,45.82 -136.59,45.32 -135.52,44.82 -133.41,43.92 -131.30,43.02 -130.33,42.44 -129.37,41.86 -128.17,41.30 -126.97,40.75 -125.75,40.19 -124.53,39.63 -123.22,38.78 -121.92,37.93 -120.79,37.36 -119.66,36.79 -118.22,36.24 -116.77,35.68 -115.40,35.11 -114.02,34.54 -112.80,33.95 -111.57,33.37 -110.20,32.46 -108.84,31.55 -107.83,31.02 -106.81,30.49 -105.78,29.92 -104.75,29.35 -102.73,28.40 -100.70,27.44 -98.67,26.51 -96.63,25.59 -95.62,25.01 -94.61,24.44 -92.64,23.91 -90.67,23.38 -88.85,22.88 -87.04,22.37 -86.00,21.93 -84.96,21.48 -83.80,20.99 -82.63,20.49 -81.07,19.96 -79.52,19.44 -77.85,18.88 -76.18,18.31 -75.09,17.91 -74.00,17.50 -73.10,16.91 -72.20,16.31 -71.01,15.90 -69.83,15.49 -67.75,14.95 -65.67,14.42 -64.48,14.39 -63.29,14.36 -62.12,13.46 -60.95,12.56 -59.16,12.04 -57.37,11.53 -56.17,11.45 -54.96,11.37 -53.66,10.96 -52.37,10.56 -51.10,10.57 -49.83,10.58 -48.66,10.11 -47.49,9.64 -46.19,9.65 -44.88,9.65 -42.92,9.21 -40.96,8.76 -39.72,8.22 -38.48,7.68 -36.62,7.28 -34.77,6.87 -32.83,6.33 -30.89,5.79 -29.13,5.42 -27.37,5.04 -25.88,4.62 -24.40,4.19 -22.84,3.63 -21.28,3.08 -20.08,2.61 -18.87,2.14 -17.46,1.68 -16.05,1.23 -14.52,0.87 -12.99,0.50 -9.60,-0.57 -6.21,-1.66 -4.77,-1.71 -3.34,-1.76 -1.90,-2.05 -0.46,-2.33 -0.18,-2.35 0.10,-2.38 0.38,-2.33 0.67,-2.28 0.93,-2.17 1.19,-2.05 1.42,-1.88 1.65,-1.71 1.83,-1.48 2.01,-1.26 2.14,-1.00 2.26,-0.74 2.32,-0.46 2.37,-0.18 2.36,0.10 2.35,0.39 2.26,0.66 2.18,0.94 2.04,1.19 1.89,1.43 1.69,1.64 1.49,1.85 1.25,2.00 1.01,2.15 0.74,2.24 0.46,2.33 0.46,2.33 L 0.46,2.33 Z"></path></g><g transform="translate(143 1231) rotate(0 15.5 40)" stroke="none"><path fill="#000000" d="M 2.36,-1.18 Q 2.36,-1.18 2.94,-0.03 3.52,1.11 4.05,2.83 4.58,4.55 5.37,5.71 6.17,6.87 6.98,8.08 7.78,9.29 8.31,10.32 8.84,11.36 9.41,12.83 9.98,14.31 10.61,15.28 11.24,16.25 12.17,17.68 13.09,19.11 14.27,20.47 15.45,21.84 16.34,23.15 17.22,24.47 19.02,26.43 20.81,28.40 21.71,29.45 22.61,30.50 23.56,31.53 24.51,32.56 25.62,33.50 26.73,34.44 27.98,35.94 29.23,37.44 30.23,38.55 31.24,39.65 33.01,41.16 34.79,42.67 35.65,43.35 36.51,44.03 37.48,44.93 38.45,45.82 39.76,47.00 41.07,48.19 42.46,49.10 43.85,50.01 45.03,51.04 46.21,52.07 47.20,52.59 48.20,53.11 49.01,56.18 49.83,59.24 48.54,60.14 47.24,61.04 45.74,61.60 44.24,62.17 42.74,62.70 41.25,63.23 40.02,63.68 38.78,64.13 37.30,64.62 35.82,65.11 34.21,65.61 32.60,66.11 31.51,66.21 30.42,66.31 28.66,67.14 26.91,67.97 25.83,68.53 24.75,69.08 23.22,69.61 21.70,70.15 20.45,71.48 19.20,72.81 17.49,73.48 15.78,74.15 14.29,74.64 12.79,75.13 11.36,76.06 9.93,77.00 8.47,77.22 7.02,77.43 5.81,77.83 4.61,78.22 3.55,78.29 2.49,78.37 1.08,78.76 -0.32,79.16 -1.77,79.78 -3.21,80.40 -4.94,80.81 -6.66,81.22 -8.01,81.66 -9.35,82.09 -10.70,82.23 -12.06,82.36 -13.83,79.47 -15.61,76.59 -15.08,76.74 -14.54,76.89 -14.08,77.20 -13.63,77.52 -13.29,77.96 -12.96,78.40 -12.78,78.93 -12.61,79.45 -12.61,80.01 -12.61,80.56 -12.79,81.09 -12.97,81.61 -13.31,82.06 -13.65,82.50 -14.11,82.80 -14.57,83.11 -15.10,83.26 -15.64,83.41 -16.19,83.37 -16.75,83.34 -17.26,83.13 -17.78,82.93 -18.20,82.57 -18.62,82.20 -18.90,81.73 -19.19,81.25 -19.30,80.71 -19.42,80.17 -19.36,79.61 -19.30,79.06 -19.06,78.56 -18.83,78.06 -18.44,77.66 -18.06,77.26 -17.57,77.00 -17.08,76.74 -16.53,76.65 -15.98,76.57 -15.43,76.66 -14.89,76.75 -14.40,77.01 -13.91,77.27 -13.53,77.68 -13.15,78.08 -12.92,78.59 -12.69,79.09 -12.63,79.64 -12.57,80.20 -12.69,80.74 -12.81,81.28 -13.10,81.75 -13.39,82.23 -13.82,82.58 -14.24,82.94 -14.76,83.15 -15.27,83.35 -15.83,83.38 -16.38,83.40 -16.38,83.40 -16.38,83.40 -14.38,79.48 -12.38,75.56 -11.19,75.47 -10.00,75.39 -8.00,74.85 -5.99,74.31 -4.98,73.82 -3.97,73.33 -2.33,72.81 -0.70,72.29 1.61,71.79 3.92,71.29 5.19,70.88 6.46,70.46 7.71,70.00 8.97,69.54 10.42,68.91 11.87,68.28 13.65,67.89 15.44,67.51 16.59,66.06 17.75,64.60 18.83,64.08 19.92,63.56 21.35,63.09 22.78,62.63 24.48,61.58 26.18,60.54 27.41,60.06 28.64,59.58 29.91,59.57 31.19,59.55 33.26,59.02 35.33,58.49 36.68,58.05 38.03,57.61 39.51,57.15 40.99,56.68 42.10,56.17 43.20,55.65 44.44,55.66 45.68,55.66 45.68,57.41 45.68,59.17 44.87,58.31 44.05,57.46 42.63,56.44 41.21,55.41 40.24,54.49 39.26,53.57 38.24,52.85 37.22,52.13 36.04,50.88 34.85,49.62 33.29,48.14 31.73,46.66 30.40,45.64 29.08,44.63 28.36,43.82 27.64,43.01 26.54,41.87 25.45,40.72 24.45,39.64 23.46,38.55 22.00,37.46 20.54,36.37 19.50,35.33 18.46,34.29 17.39,33.18 16.31,32.06 15.49,31.11 14.67,30.16 13.48,29.14 12.29,28.11 10.84,26.39 9.39,24.66 8.42,23.52 7.45,22.38 6.46,20.86 5.46,19.33 4.89,17.55 4.31,15.77 3.55,14.29 2.79,12.80 2.22,11.35 1.65,9.90 0.84,8.77 0.03,7.64 -0.42,6.63 -0.89,5.62 -1.06,4.55 -1.22,3.48 -1.79,2.33 -2.36,1.18 -2.47,0.88 -2.58,0.58 -2.61,0.26 -2.64,-0.05 -2.60,-0.36 -2.55,-0.68 -2.43,-0.98 -2.31,-1.27 -2.13,-1.53 -1.94,-1.79 -1.70,-2.00 -1.46,-2.20 -1.17,-2.35 -0.88,-2.49 -0.57,-2.56 -0.26,-2.63 0.05,-2.62 0.37,-2.62 0.67,-2.53 0.98,-2.45 1.26,-2.30 1.54,-2.14 1.78,-1.93 2.01,-1.71 2.19,-1.44 2.36,-1.18 2.36,-1.18 L 2.36,-1.18 Z"></path></g><g stroke-linecap="round" transform="translate(223 1206) rotate(0 503.5 213)"><path d="M-0.79 -0.53 C232.36 -2.22, 464.27 -2.15, 1006.78 -0.29 M0.07 0.12 C284.5 3.13, 568.67 2.75, 1007.16 0.04 M1007.56 0.26 C1005.08 120.18, 1005.09 241.28, 1007.24 425.7 M1007.39 -0.33 C1008.03 135.76, 1007.82 270.5, 1007.41 426.43 M1006.56 426.07 C715.33 426.4, 423.72 425.84, -0.29 425.49 M1007.01 425.77 C754.63 424.23, 502.55 424.2, -0.15 425.78 M0.36 425.09 C1.02 307.9, 1.05 191.11, -0.68 0.29 M0.33 426.12 C-0.28 256.76, 0.14 87.93, 0.34 0.3" stroke="#000000" stroke-width="1" fill="none"></path></g><g transform="translate(334 1283) rotate(0 88 11.5)"><text x="0" y="18" font-family="Helvetica, Segoe UI Emoji" font-size="20px" fill="#000000" text-anchor="start" style="white-space: pre;" direction="ltr">upload txt file here: </text></g><g stroke-linecap="round" transform="translate(523 1286) rotate(0 146.5 8)"><path d="M1.48 0.28 C83.07 1.32, 169.79 -0.43, 291.94 -0.18 M0.2 0.73 C109.76 -1.05, 219.13 -1.98, 293.24 0.19 M292.63 1.13 C292.81 3.17, 292.59 7.55, 294.44 15.02 M292.22 -0.09 C293.48 5.4, 293 11.07, 293.5 15.43 M292.82 16.54 C192.13 18.64, 94.63 18.19, 0.61 14.7 M292.57 16.14 C222.29 16.11, 151.44 15.8, 0.41 16.25 M0.43 14.98 C-1.03 8.87, 0.84 5.26, -0.88 -0.12 M-0.6 15.73 C0.51 13.33, -0.52 9.54, 0.2 -0.14" stroke="#000000" stroke-width="1" fill="none"></path></g><g transform="translate(351 1363) rotate(0 61.5 11.5)"><text x="0" y="18" font-family="Helvetica, Segoe UI Emoji" font-size="20px" fill="#000000" text-anchor="start" style="white-space: pre;" direction="ltr">My piece is a </text></g><g stroke-linecap="round" transform="translate(491 1368) rotate(0 152.5 36.5)"><path d="M-0.95 -0.74 C102.7 -0.59, 203.16 -1.38, 304.65 0.43 M0.19 0.3 C80.79 -2.34, 160.5 -2.57, 305.12 0.67 M304.24 -0.53 C306.05 26.7, 305.65 52.37, 306.32 74.92 M304.21 -0.2 C303.89 18.6, 304.21 40.12, 305.82 72.14 M306.15 73.66 C225.8 71.81, 148.45 73.88, -0.52 74.3 M304.52 73.36 C203.05 70.77, 101.25 71.99, 0.34 73.12 M1.79 74.15 C-0.28 58.77, -0.2 39.57, -0.93 -0.98 M0.29 72.62 C0.93 54.19, 0.04 36.87, 0.97 -0.15" stroke="#000000" stroke-width="1" fill="none"></path></g><g transform="translate(511 1373) rotate(0 44.5 34.5)"><text x="0" y="18" font-family="Helvetica, Segoe UI Emoji" font-size="20px" fill="#000000" text-anchor="start" style="white-space: pre;" direction="ltr">Beginning</text><text x="0" y="41" font-family="Helvetica, Segoe UI Emoji" font-size="20px" fill="#000000" text-anchor="start" style="white-space: pre;" direction="ltr">Middle</text><text x="0" y="64" font-family="Helvetica, Segoe UI Emoji" font-size="20px" fill="#000000" text-anchor="start" style="white-space: pre;" direction="ltr">End</text></g><g stroke-linecap="round" transform="translate(614 1380) rotate(0 5.5 6.5)"><path d="M6.64 0.88 C7.84 0.9, 9.6 1.46, 10.16 2.35 C10.72 3.25, 9.95 4.89, 10.01 6.25 C10.06 7.62, 11.14 9.26, 10.49 10.51 C9.85 11.77, 7.43 13.63, 6.14 13.79 C4.85 13.95, 3.6 12.4, 2.77 11.46 C1.94 10.52, 1.68 9.29, 1.18 8.16 C0.68 7.02, -0.45 5.82, -0.25 4.64 C-0.06 3.47, 1.08 1.88, 2.34 1.12 C3.6 0.36, 5.97 -0.02, 7.3 0.06 C8.63 0.15, 10.36 1.23, 10.34 1.62 M5.65 0.07 C6.38 0.52, 8.39 1.81, 9.34 2.83 C10.29 3.85, 11.59 4.55, 11.35 6.19 C11.1 7.83, 8.66 11.61, 7.87 12.67 C7.08 13.73, 7.51 12.85, 6.62 12.54 C5.73 12.22, 3.69 11.69, 2.55 10.78 C1.41 9.87, -0.11 8.27, -0.21 7.08 C-0.31 5.89, 1.18 4.49, 1.94 3.63 C2.7 2.78, 3.61 2.39, 4.32 1.95 C5.03 1.51, 5.75 1.22, 6.18 0.99 C6.62 0.76, 6.92 0.6, 6.94 0.56" stroke="#000000" stroke-width="1" fill="none"></path></g><g stroke-linecap="round" transform="translate(609 1401) rotate(0 6.5 5.5)"><path d="M5.31 1.18 C6.3 0.87, 7.33 0.6, 8.48 0.93 C9.63 1.26, 11.58 2.2, 12.22 3.16 C12.86 4.13, 12.79 5.44, 12.35 6.72 C11.91 8.01, 10.68 10.08, 9.58 10.88 C8.48 11.69, 6.96 11.64, 5.74 11.56 C4.53 11.48, 3.34 11.25, 2.3 10.4 C1.27 9.55, -0.2 7.81, -0.46 6.44 C-0.72 5.07, -0.07 3.23, 0.76 2.17 C1.58 1.1, 3.67 0.34, 4.5 0.06 C5.33 -0.22, 5.51 0.39, 5.74 0.48 M7.43 1.4 C8.6 1.61, 10.05 0.98, 11 1.57 C11.96 2.16, 13.24 3.42, 13.17 4.92 C13.11 6.43, 11.77 9.47, 10.62 10.61 C9.46 11.76, 7.44 11.65, 6.27 11.78 C5.1 11.91, 4.34 12.31, 3.58 11.42 C2.83 10.53, 2.11 7.9, 1.74 6.41 C1.37 4.92, 1.14 3.52, 1.34 2.47 C1.53 1.42, 1.87 0.53, 2.9 0.12 C3.94 -0.29, 6.86 0.19, 7.55 0 C8.24 -0.18, 6.97 -1.15, 7.02 -1" stroke="#000000" stroke-width="1" fill="none"></path></g><g stroke-linecap="round" transform="translate(611 1423) rotate(0 5.5 5.5)"><path d="M3.93 1.02 C4.88 0.91, 6.22 0.64, 7.41 1.18 C8.59 1.73, 10.31 3.38, 11.02 4.31 C11.74 5.23, 12.05 5.86, 11.71 6.74 C11.37 7.62, 10.2 8.94, 8.97 9.58 C7.73 10.23, 5.61 10.71, 4.3 10.63 C2.99 10.55, 1.95 10.05, 1.13 9.09 C0.31 8.13, -0.63 6.01, -0.62 4.87 C-0.61 3.73, 0.31 3.04, 1.17 2.26 C2.02 1.48, 3.63 0.65, 4.51 0.19 C5.38 -0.27, 6.15 -0.54, 6.4 -0.51 M3.63 -0.1 C4.71 -0.1, 6.25 0.23, 7.49 1.02 C8.74 1.81, 10.43 3.63, 11.13 4.64 C11.82 5.64, 12.42 6.08, 11.64 7.03 C10.87 7.98, 7.51 9.76, 6.47 10.35 C5.43 10.94, 6.21 11.01, 5.43 10.56 C4.65 10.11, 2.93 8.61, 1.8 7.65 C0.67 6.68, -1.18 5.64, -1.35 4.79 C-1.51 3.95, -0.38 3.33, 0.79 2.56 C1.96 1.8, 5.02 0.51, 5.68 0.19 C6.34 -0.13, 4.75 0.51, 4.77 0.65" stroke="#000000" stroke-width="1" fill="none"></path></g><g transform="translate(350 1492) rotate(0 19 11.5)"><text x="0" y="18" font-family="Helvetica, Segoe UI Emoji" font-size="20px" fill="#000000" text-anchor="start" style="white-space: pre;" direction="ltr">Title</text></g><g stroke-linecap="round" transform="translate(490 1490) rotate(0 150.5 12.5)"><path d="M1.09 -0.68 C90.48 -1.06, 185 -1.24, 301.73 -1.07 M0.43 0.37 C63.09 1.02, 126.27 1.48, 301.2 -0.4 M302.9 0.89 C301.78 8.17, 299.14 16.76, 301.76 23.98 M301.69 -0.27 C301.05 5.92, 300.86 12.74, 301.76 24.04 M300.55 25.22 C184.83 23.68, 69.17 22.85, 0.23 25.53 M300.76 25.63 C184.52 26.38, 68.95 25.1, 0.04 24.62 M-1.96 23.05 C-0.07 17.85, -0.64 14.56, -0.71 0.9 M-0.86 25.52 C-0.15 16.98, -0.12 10.98, 0.7 0.22" stroke="#000000" stroke-width="1" fill="none"></path></g><g transform="translate(1152 683) rotate(0 126.5 665.5)" stroke="none"><path fill="#000000" d="M 0.83,-2.51 Q 0.83,-2.51 1.70,-2.26 2.58,-2.00 4.10,-1.22 5.61,-0.43 6.75,-0.22 7.88,-0.01 8.95,0.79 10.03,1.61 11.17,2.65 12.32,3.70 13.18,4.49 14.05,5.28 15.26,6.94 16.47,8.60 17.75,9.57 19.03,10.53 19.88,11.68 20.73,12.83 21.70,13.68 22.68,14.53 23.85,15.95 25.02,17.37 26.27,18.67 27.51,19.97 28.29,20.95 29.08,21.94 30.86,23.28 32.65,24.61 33.58,25.61 34.52,26.61 35.73,28.14 36.93,29.67 37.91,30.94 38.88,32.22 40.03,33.47 41.18,34.72 41.69,35.70 42.20,36.68 43.55,38.45 44.90,40.22 45.61,41.41 46.33,42.60 47.16,44.01 47.99,45.42 49.10,47.13 50.20,48.85 51.59,50.70 52.99,52.56 54.14,53.85 55.30,55.14 56.19,56.41 57.08,57.68 57.59,58.67 58.09,59.66 59.46,61.19 60.82,62.72 61.46,64.11 62.11,65.50 63.33,67.27 64.55,69.05 65.50,70.61 66.45,72.17 67.18,73.07 67.91,73.96 68.85,75.71 69.79,77.47 70.64,78.58 71.49,79.69 72.27,80.87 73.05,82.06 73.69,83.14 74.33,84.22 75.26,85.36 76.20,86.51 76.84,87.52 77.49,88.52 78.02,89.47 78.56,90.42 79.09,91.39 79.61,92.35 81.18,95.29 82.76,98.22 83.38,100.33 84.00,102.43 84.73,104.37 85.47,106.32 85.94,107.51 86.41,108.69 86.89,110.02 87.37,111.34 88.06,112.98 88.74,114.63 89.17,116.09 89.60,117.55 90.04,118.54 90.48,119.53 90.98,120.89 91.47,122.25 91.97,123.69 92.46,125.13 92.96,126.24 93.46,127.34 93.78,128.63 94.10,129.93 94.43,131.50 94.77,133.07 95.36,134.77 95.94,136.47 96.71,138.40 97.47,140.32 98.35,142.64 99.24,144.96 99.92,146.82 100.61,148.68 101.16,151.00 101.71,153.31 102.25,155.08 102.79,156.85 103.57,157.98 104.35,159.12 104.85,160.78 105.35,162.44 105.56,164.03 105.78,165.62 106.13,166.97 106.49,168.31 107.15,169.60 107.80,170.88 108.22,171.90 108.65,172.93 109.49,174.97 110.32,177.02 111.23,178.75 112.14,180.47 113.10,182.06 114.07,183.65 114.86,185.29 115.64,186.92 116.66,188.58 117.68,190.23 118.39,191.81 119.09,193.39 119.69,194.42 120.28,195.45 121.28,196.33 122.29,197.21 122.94,198.29 123.59,199.37 124.70,201.29 125.82,203.22 126.83,204.62 127.85,206.01 128.58,207.26 129.30,208.51 130.32,210.25 131.33,211.98 132.78,213.85 134.24,215.72 136.02,218.06 137.80,220.40 139.68,222.86 141.55,225.31 142.67,226.58 143.78,227.85 145.60,229.86 147.42,231.86 148.37,233.04 149.32,234.22 150.97,236.10 152.63,237.98 154.19,239.69 155.76,241.39 157.28,242.99 158.79,244.59 160.53,246.10 162.27,247.61 163.67,248.82 165.06,250.03 166.47,251.05 167.87,252.08 169.33,253.07 170.80,254.07 171.81,254.76 172.82,255.44 173.88,256.32 174.94,257.20 176.66,258.28 178.39,259.37 180.29,260.65 182.18,261.93 183.67,262.96 185.16,263.99 186.06,265.00 186.97,266.01 188.28,266.51 189.59,267.01 191.42,268.50 193.25,270.00 194.35,270.87 195.44,271.73 196.83,272.87 198.22,274.00 199.36,275.49 200.50,276.97 201.78,278.18 203.06,279.39 204.01,280.29 204.97,281.18 206.16,282.49 207.35,283.81 208.45,284.85 209.55,285.89 210.33,286.71 211.12,287.52 212.56,289.01 214.00,290.49 215.70,292.13 217.40,293.76 218.93,295.30 220.45,296.83 221.97,298.36 223.48,299.90 223.96,300.85 224.43,301.81 225.71,303.49 226.99,305.18 227.52,306.17 228.04,307.16 228.73,309.24 229.41,311.33 230.07,313.05 230.73,314.78 231.29,315.90 231.84,317.01 232.37,318.08 232.90,319.15 233.23,320.85 233.56,322.56 234.03,324.02 234.51,325.49 235.40,328.02 236.29,330.56 236.90,331.95 237.50,333.33 238.06,334.82 238.61,336.32 239.18,337.78 239.75,339.24 239.90,340.61 240.06,341.98 240.48,343.21 240.91,344.44 241.03,346.16 241.16,347.88 241.73,349.10 242.30,350.32 243.20,352.25 244.10,354.18 244.42,355.54 244.75,356.89 244.85,358.04 244.96,359.19 245.42,360.30 245.89,361.41 245.99,362.48 246.09,363.55 246.21,393.31 246.32,423.07 246.27,435.69 246.21,448.31 246.12,453.97 246.03,459.62 245.95,462.31 245.87,465.00 245.93,466.43 246.00,467.87 246.15,469.43 246.30,471.00 246.41,472.39 246.52,473.79 246.82,474.83 247.12,475.88 247.43,477.72 247.74,479.57 247.84,480.84 247.93,482.11 247.76,511.93 247.58,541.74 247.42,554.46 247.26,567.19 247.13,572.88 247.01,578.58 246.91,581.28 246.82,583.98 247.38,586.08 247.94,588.18 247.97,618.68 247.99,649.18 247.90,662.06 247.82,674.95 247.75,680.71 247.69,686.47 247.92,689.13 248.15,691.78 248.32,693.54 248.49,695.31 248.75,697.08 249.01,698.86 249.36,699.97 249.70,701.08 250.06,702.47 250.41,703.86 251.05,705.40 251.68,706.94 251.79,708.07 251.89,709.20 252.22,739.51 252.55,769.83 252.41,782.52 252.26,795.22 252.14,800.91 252.02,806.59 251.93,809.29 251.83,811.99 252.16,813.24 252.49,814.49 252.66,844.99 252.83,875.50 252.77,888.29 252.71,901.08 252.66,906.81 252.61,912.53 252.57,915.25 252.53,917.97 252.89,919.24 253.25,920.52 253.62,922.18 253.99,923.84 254.16,925.42 254.33,927.00 254.10,929.17 253.86,931.35 253.82,932.61 253.78,933.88 253.38,935.67 252.97,937.47 253.02,939.17 253.07,940.87 253.10,942.31 253.12,943.76 253.10,944.98 253.07,946.19 253.10,947.63 253.13,949.06 253.16,950.43 253.19,951.80 253.22,952.98 253.24,954.17 253.28,955.71 253.32,957.25 253.36,958.75 253.39,960.26 253.41,961.76 253.44,963.26 253.46,964.76 253.48,966.26 253.86,967.84 254.24,969.42 254.37,970.76 254.50,972.10 255.31,973.64 256.13,975.18 256.33,976.64 256.54,978.09 256.56,979.16 256.59,980.23 256.58,982.03 256.57,983.83 256.57,985.00 256.57,986.18 256.56,987.62 256.55,989.06 256.55,990.14 256.55,991.22 256.56,992.74 256.57,994.25 256.31,1024.41 256.06,1054.57 255.85,1067.35 255.63,1080.12 255.46,1114.58 255.30,1149.05 255.17,1163.98 255.04,1178.92 254.65,1214.02 254.27,1249.13 253.79,1264.06 253.30,1278.99 252.79,1285.37 252.27,1291.74 251.73,1294.81 251.20,1297.87 250.39,1299.44 249.59,1301.01 248.76,1302.53 247.92,1304.06 246.74,1304.96 245.56,1305.86 244.10,1307.02 242.63,1308.17 241.06,1308.83 239.48,1309.50 238.25,1309.68 237.03,1309.86 235.55,1310.43 234.06,1310.99 232.79,1311.46 231.52,1311.92 230.43,1312.24 229.34,1312.56 227.40,1312.87 225.45,1313.18 224.00,1313.61 222.55,1314.05 221.22,1314.19 219.89,1314.33 218.83,1314.37 217.76,1314.40 216.43,1314.39 215.10,1314.37 213.60,1314.86 212.10,1315.36 210.95,1315.41 209.80,1315.46 208.22,1315.83 206.64,1316.20 205.22,1316.71 203.79,1317.23 202.07,1317.33 200.34,1317.44 198.96,1317.83 197.57,1318.22 196.51,1318.44 195.44,1318.66 193.66,1318.92 191.88,1319.18 190.30,1320.16 188.73,1321.14 187.23,1321.65 185.73,1322.17 183.83,1322.66 181.92,1323.15 180.41,1324.02 178.90,1324.90 177.48,1325.02 176.06,1325.14 174.24,1325.71 172.43,1326.29 171.03,1326.70 169.64,1327.11 168.37,1327.21 167.11,1327.31 164.95,1328.23 162.78,1329.16 161.20,1329.65 159.62,1330.15 158.52,1330.45 157.42,1330.75 155.79,1331.05 154.16,1331.36 153.10,1331.39 152.03,1331.41 150.37,1332.29 148.70,1333.16 147.31,1333.32 145.92,1333.49 143.88,1333.97 141.84,1334.45 141.27,1334.49 140.70,1334.54 140.14,1334.40 139.58,1334.26 139.10,1333.95 138.61,1333.64 138.25,1333.19 137.90,1332.74 137.70,1332.20 137.50,1331.66 137.49,1331.08 137.47,1330.51 137.64,1329.96 137.81,1329.41 138.15,1328.94 138.49,1328.47 138.96,1328.14 139.42,1327.81 139.97,1327.64 140.52,1327.47 141.10,1327.49 141.67,1327.51 142.21,1327.70 142.75,1327.90 143.20,1328.27 143.65,1328.63 143.96,1329.11 144.26,1329.60 144.40,1330.16 144.54,1330.72 144.49,1331.29 144.44,1331.86 144.21,1332.39 143.99,1332.92 143.60,1333.34 143.22,1333.77 142.71,1334.05 142.21,1334.34 141.65,1334.44 141.08,1334.55 140.51,1334.47 139.94,1334.39 139.43,1334.13 138.91,1333.88 138.51,1333.47 138.10,1333.06 137.85,1332.55 137.59,1332.03 137.52,1331.46 137.44,1330.89 137.55,1330.32 137.66,1329.76 137.95,1329.26 138.23,1328.76 138.66,1328.38 139.09,1327.99 139.62,1327.77 140.15,1327.54 140.15,1327.54 140.15,1327.54 142.40,1326.99 144.66,1326.44 145.73,1326.50 146.81,1326.57 147.92,1326.04 149.02,1325.52 150.82,1325.00 152.61,1324.48 153.76,1324.40 154.91,1324.32 156.52,1323.92 158.14,1323.52 160.03,1323.06 161.91,1322.60 162.99,1322.09 164.07,1321.58 165.26,1321.10 166.45,1320.61 167.85,1320.48 169.24,1320.35 171.00,1320.05 172.76,1319.74 174.51,1319.34 176.25,1318.95 177.20,1318.17 178.14,1317.39 180.03,1316.84 181.92,1316.28 183.33,1315.79 184.74,1315.29 186.52,1314.59 188.29,1313.88 190.35,1313.15 192.40,1312.41 194.32,1311.94 196.24,1311.46 198.18,1310.97 200.13,1310.48 201.50,1310.50 202.87,1310.53 203.94,1310.02 205.02,1309.51 206.26,1309.03 207.49,1308.55 208.58,1308.53 209.67,1308.50 210.96,1308.51 212.25,1308.52 214.20,1308.05 216.15,1307.59 217.41,1307.59 218.67,1307.59 219.98,1307.60 221.30,1307.62 222.49,1307.16 223.68,1306.71 225.33,1306.61 226.98,1306.52 228.56,1306.16 230.15,1305.81 232.18,1305.39 234.21,1304.97 235.95,1304.71 237.68,1304.46 238.61,1303.90 239.55,1303.35 240.92,1302.93 242.28,1302.51 243.81,1301.70 245.33,1300.90 246.02,1300.07 246.70,1299.24 247.46,1298.27 248.23,1297.30 248.65,1294.40 249.08,1291.51 249.49,1285.20 249.90,1278.90 250.24,1264.00 250.57,1249.10 250.76,1214.01 250.95,1178.92 250.82,1163.98 250.69,1149.05 250.53,1114.58 250.36,1080.12 250.14,1067.35 249.93,1054.57 249.68,1024.41 249.42,994.25 249.43,992.74 249.44,991.22 249.44,990.14 249.44,989.06 249.43,987.62 249.42,986.18 249.42,985.01 249.41,983.83 249.40,982.06 249.39,980.30 249.85,979.32 250.31,978.35 249.40,977.18 248.48,976.01 247.99,974.77 247.50,973.54 247.50,972.26 247.51,970.97 247.03,969.73 246.55,968.49 246.53,967.37 246.51,966.26 246.53,964.76 246.55,963.26 246.58,961.76 246.60,960.26 246.63,958.75 246.67,957.25 246.71,955.71 246.75,954.17 246.77,952.98 246.80,951.80 246.83,950.43 246.86,949.06 246.89,947.63 246.92,946.19 246.91,944.12 246.90,942.05 246.95,940.58 247.01,939.11 247.17,937.83 247.34,936.54 247.85,935.05 248.36,933.55 248.67,931.71 248.98,929.87 249.30,928.47 249.63,927.06 249.74,925.61 249.85,924.17 249.87,922.68 249.88,921.20 249.66,919.59 249.45,917.98 249.40,915.26 249.35,912.54 249.28,906.81 249.21,901.09 249.11,888.30 249.01,875.51 248.83,845.38 248.65,815.26 248.40,813.63 248.14,812.01 248.04,809.30 247.94,806.60 247.80,800.91 247.66,795.23 247.47,782.53 247.28,769.84 247.43,741.33 247.58,712.83 246.83,711.07 246.07,709.31 246.17,707.94 246.27,706.57 245.85,704.76 245.42,702.95 245.17,700.97 244.91,698.99 245.02,697.27 245.14,695.54 245.06,693.83 244.98,692.12 244.64,689.30 244.29,686.48 244.22,680.71 244.14,674.95 244.04,662.07 243.93,649.18 243.79,619.62 243.64,590.06 243.64,588.42 243.64,586.77 243.40,585.39 243.17,584.01 243.08,581.29 242.98,578.58 242.86,572.88 242.73,567.19 242.57,554.46 242.40,541.74 242.22,511.98 242.03,482.21 242.06,481.06 242.09,479.91 242.06,478.76 242.02,477.61 241.75,475.70 241.47,473.79 241.58,472.40 241.69,471.01 241.83,469.45 241.97,467.89 242.01,466.46 242.06,465.04 241.93,462.35 241.80,459.66 241.60,454.01 241.40,448.36 241.09,435.74 240.79,423.12 240.26,394.15 239.74,365.18 239.70,363.71 239.65,362.24 239.21,361.04 238.77,359.85 238.62,358.37 238.46,356.89 237.96,355.90 237.46,354.92 236.96,353.91 236.47,352.90 236.00,351.85 235.53,350.80 235.15,349.50 234.76,348.20 234.69,346.53 234.61,344.87 234.23,343.62 233.85,342.37 233.88,341.02 233.91,339.68 233.36,338.27 232.81,336.86 232.36,335.39 231.90,333.92 231.33,331.86 230.76,329.80 230.13,328.63 229.50,327.47 228.52,324.63 227.54,321.78 227.01,320.78 226.49,319.78 225.92,318.73 225.36,317.68 224.41,315.47 223.47,313.26 223.06,312.10 222.65,310.94 222.11,309.69 221.57,308.45 220.71,307.22 219.85,305.99 218.85,304.23 217.85,302.46 216.34,300.98 214.83,299.50 213.31,298.06 211.80,296.61 210.65,295.81 209.50,295.02 208.02,293.58 206.53,292.14 205.23,290.88 203.94,289.63 202.96,288.69 201.97,287.76 200.88,286.10 199.78,284.44 198.92,283.62 198.05,282.79 197.01,282.00 195.96,281.20 195.04,279.84 194.12,278.48 193.13,277.56 192.14,276.63 191.07,275.85 190.01,275.07 189.16,273.91 188.30,272.75 187.00,271.89 185.69,271.03 183.98,269.69 182.27,268.36 181.26,267.66 180.26,266.96 178.86,265.61 177.45,264.26 175.89,263.03 174.33,261.80 173.27,260.99 172.21,260.18 171.34,259.28 170.47,258.39 169.66,257.61 168.84,256.84 167.36,255.76 165.88,254.67 164.42,253.51 162.96,252.34 161.66,251.10 160.37,249.85 158.49,248.30 156.61,246.74 155.02,245.19 153.44,243.64 151.77,241.98 150.10,240.33 148.18,238.37 146.27,236.41 145.60,235.33 144.92,234.25 142.92,232.27 140.92,230.29 139.81,228.96 138.71,227.63 136.70,225.31 134.70,222.99 132.77,220.87 130.84,218.75 128.96,216.89 127.09,215.02 125.69,213.38 124.28,211.75 122.91,209.68 121.53,207.61 120.98,206.18 120.43,204.76 119.58,203.34 118.73,201.92 117.55,200.40 116.37,198.89 115.84,197.69 115.31,196.49 114.80,195.08 114.30,193.67 113.84,192.17 113.39,190.67 112.82,189.58 112.24,188.49 111.61,187.03 110.97,185.57 109.94,183.94 108.90,182.30 107.82,180.51 106.73,178.71 105.39,175.70 104.05,172.69 103.26,170.98 102.47,169.28 102.13,167.65 101.78,166.02 101.71,164.67 101.63,163.32 101.45,162.11 101.27,160.91 100.44,159.36 99.62,157.81 99.09,155.98 98.56,154.14 97.95,152.03 97.34,149.92 96.64,148.14 95.94,146.35 94.92,144.16 93.90,141.96 92.89,140.03 91.87,138.10 90.99,136.13 90.11,134.17 89.59,131.66 89.07,129.15 88.58,127.88 88.09,126.62 87.61,125.19 87.13,123.77 86.69,122.44 86.25,121.12 85.84,119.85 85.43,118.58 85.21,117.43 84.99,116.28 84.15,114.48 83.31,112.68 82.90,111.33 82.50,109.97 82.24,108.90 81.98,107.84 80.99,105.83 80.00,103.82 79.27,102.05 78.54,100.28 77.65,98.73 76.75,97.17 75.83,95.97 74.92,94.77 74.45,93.79 73.98,92.81 73.25,91.22 72.51,89.62 71.23,88.15 69.94,86.69 69.41,85.68 68.89,84.68 68.28,83.66 67.67,82.64 66.61,81.28 65.54,79.92 64.68,78.56 63.82,77.21 63.03,76.18 62.24,75.16 60.43,72.69 58.62,70.22 57.59,68.33 56.56,66.44 55.62,65.45 54.68,64.46 53.59,62.71 52.50,60.96 51.16,59.28 49.83,57.59 49.13,56.69 48.43,55.80 47.57,54.68 46.72,53.56 45.74,51.99 44.75,50.41 44.04,49.46 43.32,48.51 42.33,47.17 41.35,45.83 40.17,44.01 38.99,42.19 37.90,40.68 36.81,39.16 36.08,37.90 35.34,36.64 34.54,35.77 33.74,34.90 32.96,33.74 32.18,32.58 31.39,31.49 30.59,30.40 29.07,28.70 27.55,26.99 25.74,25.54 23.93,24.08 21.42,21.94 18.92,19.79 17.18,18.20 15.44,16.61 14.62,15.61 13.80,14.61 12.83,13.95 11.87,13.29 11.20,12.18 10.53,11.08 9.58,9.66 8.63,8.24 7.30,6.81 5.97,5.38 4.70,4.96 3.43,4.53 2.15,3.84 0.86,3.15 0.01,2.83 -0.83,2.51 -1.12,2.37 -1.41,2.24 -1.66,2.03 -1.91,1.83 -2.10,1.58 -2.29,1.32 -2.41,1.03 -2.54,0.73 -2.59,0.42 -2.64,0.10 -2.62,-0.21 -2.59,-0.52 -2.49,-0.83 -2.39,-1.13 -2.22,-1.40 -2.05,-1.67 -1.82,-1.89 -1.59,-2.11 -1.31,-2.27 -1.03,-2.43 -0.73,-2.52 -0.42,-2.61 -0.10,-2.62 0.21,-2.64 0.52,-2.57 0.83,-2.51 0.83,-2.51 L 0.83,-2.51 Z"></path></g><g transform="translate(1288 1983) rotate(0 4.5 30.5)" stroke="none"><path fill="#000000" d="M 2.51,-0.83 Q 2.51,-0.83 2.83,0.01 3.15,0.86 3.44,2.50 3.73,4.13 3.37,5.32 3.01,6.51 2.64,7.75 2.27,9.00 1.81,9.97 1.36,10.94 0.88,11.92 0.40,12.90 -0.15,14.18 -0.72,15.45 -1.23,16.50 -1.75,17.56 -2.22,18.74 -2.70,19.92 -3.14,20.95 -3.57,21.99 -4.09,23.21 -4.62,24.42 -5.16,26.08 -5.70,27.74 -5.67,29.03 -5.64,30.32 -5.65,31.90 -5.65,33.49 -6.13,34.70 -6.60,35.92 -6.57,37.06 -6.53,38.20 -6.53,39.73 -6.52,41.25 -5.02,42.00 -3.51,42.75 -2.41,43.81 -1.31,44.87 -0.14,46.45 1.02,48.03 2.24,49.21 3.46,50.40 4.42,50.87 5.39,51.34 6.39,51.83 7.40,52.32 8.40,52.81 9.41,53.31 10.87,53.93 12.32,54.56 13.78,55.53 15.24,56.50 16.33,57.40 17.41,58.30 18.25,57.83 19.08,57.37 19.66,57.47 20.23,57.58 20.75,57.87 21.26,58.16 21.65,58.59 22.05,59.03 22.28,59.57 22.51,60.10 22.56,60.69 22.61,61.28 22.48,61.85 22.34,62.42 22.02,62.91 21.71,63.41 21.25,63.78 20.79,64.15 20.24,64.35 19.69,64.56 19.11,64.58 18.52,64.59 17.96,64.42 17.39,64.25 16.92,63.91 16.44,63.57 16.09,63.10 15.75,62.62 15.57,62.06 15.40,61.50 15.41,60.91 15.43,60.32 15.63,59.77 15.83,59.22 16.19,58.76 16.56,58.30 17.05,57.98 17.55,57.67 18.12,57.52 18.69,57.38 19.27,57.42 19.86,57.47 20.40,57.70 20.94,57.93 21.38,58.32 21.82,58.71 22.11,59.22 22.40,59.73 22.51,60.31 22.62,60.88 22.55,61.47 22.47,62.05 22.21,62.57 21.95,63.10 21.54,63.52 21.12,63.94 20.60,64.20 20.07,64.46 19.49,64.54 18.91,64.62 18.91,64.62 18.91,64.62 15.82,63.73 12.72,62.83 11.27,62.38 9.82,61.93 8.02,60.58 6.22,59.23 5.23,58.72 4.24,58.22 3.24,57.70 2.23,57.19 1.15,56.62 0.07,56.06 -1.54,54.92 -3.15,53.77 -3.84,52.62 -4.54,51.46 -5.37,50.64 -6.20,49.82 -7.38,48.56 -8.57,47.31 -9.93,46.94 -11.30,46.58 -12.11,45.48 -12.92,44.39 -13.20,43.32 -13.48,42.24 -13.45,40.68 -13.42,39.12 -13.38,37.86 -13.33,36.61 -13.24,35.53 -13.15,34.45 -12.75,32.84 -12.35,31.22 -12.31,30.16 -12.27,29.09 -12.11,27.74 -11.95,26.40 -11.38,24.73 -10.82,23.05 -10.07,21.26 -9.33,19.48 -8.71,17.89 -8.09,16.30 -7.37,15.13 -6.66,13.96 -6.23,12.63 -5.80,11.29 -4.95,9.83 -4.09,8.36 -3.41,6.97 -2.74,5.59 -2.37,4.08 -2.00,2.58 -2.26,1.71 -2.51,0.83 -2.58,0.52 -2.64,0.21 -2.63,-0.10 -2.61,-0.42 -2.53,-0.73 -2.44,-1.04 -2.28,-1.31 -2.12,-1.59 -1.89,-1.82 -1.67,-2.05 -1.40,-2.22 -1.13,-2.39 -0.83,-2.49 -0.52,-2.60 -0.21,-2.62 0.10,-2.65 0.42,-2.60 0.73,-2.54 1.03,-2.42 1.32,-2.29 1.58,-2.10 1.83,-1.91 2.04,-1.66 2.24,-1.41 2.38,-1.12 2.51,-0.83 2.51,-0.83 L 2.51,-0.83 Z"></path></g><g stroke-linecap="round" transform="translate(223 1710) rotate(0 505.5 268)"><path d="M-0.17 0 C391.49 3.09, 783.89 3.42, 1010.21 -0.21 M-0.12 0.1 C274.82 0.24, 549.25 0.37, 1010.65 0.29 M1010.6 -0.56 C1009.08 166.35, 1009.43 331.62, 1010.59 535.9 M1011.31 -0.24 C1011.26 184.17, 1011.4 368.97, 1011.02 536.24 M1010.41 535.85 C784.84 536.8, 558.34 536.59, -0.59 536.27 M1011.13 536.23 C775.22 533.04, 539.88 532.33, -0.09 535.96 M0.2 536.07 C0.73 330.74, 0.67 124.73, -0.4 -0.4 M-0.18 535.74 C0.68 359.24, 1.27 181.91, -0.01 0.04" stroke="#000000" stroke-width="1" fill="none"></path></g><g transform="translate(378 1762) rotate(0 153.5 11.5)"><text x="0" y="18" font-family="Helvetica, Segoe UI Emoji" font-size="20px" fill="#000000" text-anchor="start" style="white-space: pre;" direction="ltr">Stories that need additional pieces</text></g><g transform="translate(392 1858) rotate(0 79.5 11.5)"><text x="0" y="18" font-family="Helvetica, Segoe UI Emoji" font-size="20px" fill="#000000" text-anchor="start" style="white-space: pre;" direction="ltr">Title by username</text></g><g transform="translate(396 1896) rotate(0 79 23)"><text x="0" y="18" font-family="Helvetica, Segoe UI Emoji" font-size="20px" fill="#000000" text-anchor="start" style="white-space: pre;" direction="ltr">Title by username</text><text x="0" y="41" font-family="Helvetica, Segoe UI Emoji" font-size="20px" fill="#000000" text-anchor="start" style="white-space: pre;" direction="ltr"></text></g><g transform="translate(400 1944) rotate(0 79.5 11.5)"><text x="0" y="18" font-family="Helvetica, Segoe UI Emoji" font-size="20px" fill="#000000" text-anchor="start" style="white-space: pre;" direction="ltr">Title by username</text></g><g transform="translate(403 2003) rotate(0 79.5 11.5)"><text x="0" y="18" font-family="Helvetica, Segoe UI Emoji" font-size="20px" fill="#000000" text-anchor="start" style="white-space: pre;" direction="ltr">Title by username</text></g><g transform="translate(409 2070) rotate(0 79.5 11.5)"><text x="0" y="18" font-family="Helvetica, Segoe UI Emoji" font-size="20px" fill="#000000" text-anchor="start" style="white-space: pre;" direction="ltr">Title by username</text></g><g transform="translate(602 1859) rotate(0 44.5 125)" stroke="none"><path fill="#000000" d="M -0.84,-2.53 Q -0.84,-2.53 0.01,-2.85 0.86,-3.17 2.38,-3.47 3.90,-3.78 5.04,-3.87 6.18,-3.97 7.72,-4.04 9.25,-4.12 10.36,-4.13 11.47,-4.14 12.67,-3.68 13.87,-3.22 14.81,-2.61 15.75,-2.01 17.04,-1.10 18.34,-0.19 19.48,0.78 20.63,1.77 22.42,2.70 24.22,3.63 25.24,4.13 26.26,4.63 27.76,5.62 29.27,6.61 30.30,7.49 31.34,8.36 32.35,8.86 33.35,9.36 34.43,10.00 35.51,10.64 36.47,11.49 37.43,12.35 38.25,13.19 39.06,14.02 39.80,15.18 40.53,16.33 41.41,17.18 42.28,18.02 42.69,19.02 43.10,20.01 43.93,21.31 44.77,22.61 45.25,23.63 45.74,24.65 46.48,25.90 47.22,27.16 48.08,28.04 48.95,28.92 49.24,30.48 49.52,32.04 50.01,33.47 50.50,34.91 50.92,36.61 51.33,38.30 51.78,39.78 52.23,41.25 52.70,42.76 53.18,44.26 53.48,45.40 53.77,46.55 54.07,48.18 54.38,49.82 54.32,51.03 54.26,52.25 54.75,53.30 55.25,54.34 55.31,55.41 55.37,56.49 55.41,57.79 55.45,59.10 55.44,60.28 55.42,61.45 54.95,62.70 54.48,63.94 53.97,65.50 53.47,67.07 52.56,68.20 51.66,69.34 50.64,70.87 49.63,72.41 48.30,73.74 46.97,75.07 45.49,76.57 44.01,78.07 43.21,79.30 42.41,80.53 41.37,81.69 40.34,82.85 39.42,84.58 38.50,86.31 37.90,87.40 37.31,88.49 35.99,89.96 34.68,91.43 35.16,92.85 35.65,94.27 36.21,95.46 36.76,96.66 38.18,97.24 39.60,97.82 40.47,98.52 41.35,99.22 42.39,99.76 43.42,100.29 44.94,101.29 46.45,102.30 48.38,102.87 50.30,103.45 51.65,104.33 53.00,105.21 54.51,105.73 56.03,106.26 57.18,107.36 58.33,108.45 59.96,109.36 61.58,110.28 64.18,111.73 66.77,113.18 68.06,113.86 69.34,114.53 70.67,115.54 71.99,116.54 72.83,117.22 73.67,117.89 74.83,118.41 75.99,118.92 77.37,119.73 78.75,120.54 79.65,121.18 80.55,121.81 81.79,122.27 83.02,122.73 84.11,123.28 85.19,123.83 86.40,124.47 87.60,125.10 88.56,125.49 89.53,125.88 89.87,126.07 90.21,126.26 90.50,126.52 90.79,126.79 91.01,127.11 91.23,127.44 91.36,127.80 91.49,128.17 91.53,128.56 91.58,128.95 91.52,129.34 91.47,129.72 91.33,130.09 91.18,130.45 90.95,130.77 90.73,131.09 90.43,131.34 90.13,131.60 89.79,131.77 89.44,131.95 89.06,132.04 88.67,132.13 88.28,132.12 87.89,132.12 87.51,132.02 87.14,131.92 85.44,132.76 83.73,133.61 82.62,133.97 81.50,134.33 80.18,135.08 78.85,135.83 77.26,136.42 75.68,137.00 74.68,137.52 73.68,138.03 72.43,138.37 71.18,138.70 69.66,139.53 68.14,140.36 66.36,140.79 64.58,141.23 63.11,141.73 61.64,142.22 60.21,142.70 58.78,143.17 57.78,143.65 56.78,144.13 55.79,144.63 54.79,145.13 53.79,145.64 52.80,146.14 51.40,147.08 50.00,148.02 48.89,148.59 47.78,149.15 45.85,150.24 43.93,151.33 42.83,151.85 41.73,152.37 40.72,152.88 39.71,153.38 38.23,153.96 36.75,154.54 35.36,155.31 33.97,156.08 32.40,157.07 30.83,158.06 30.53,155.38 30.24,152.69 31.76,152.54 33.28,152.40 34.77,152.39 36.26,152.39 37.76,152.38 39.26,152.38 40.38,152.41 41.50,152.44 42.78,152.94 44.07,153.44 46.11,154.45 48.15,155.46 49.20,155.98 50.25,156.49 51.51,157.54 52.76,158.59 53.82,159.69 54.87,160.78 55.55,161.84 56.23,162.90 57.47,164.68 58.71,166.46 59.50,167.78 60.29,169.09 60.78,170.08 61.26,171.07 61.92,173.17 62.57,175.27 63.04,176.87 63.52,178.46 64.19,180.29 64.86,182.12 65.40,183.69 65.94,185.26 66.46,187.18 66.98,189.10 67.11,190.54 67.24,191.98 67.28,193.09 67.33,194.20 67.36,195.73 67.39,197.25 67.76,198.31 68.13,199.37 68.62,200.33 69.11,201.30 69.43,202.43 69.75,203.56 70.03,205.13 70.32,206.69 71.20,207.92 72.08,209.14 72.60,210.59 73.11,212.04 73.24,213.42 73.38,214.81 73.89,216.34 74.41,217.87 74.46,219.03 74.51,220.19 74.49,221.33 74.48,222.48 73.87,223.86 73.27,225.24 72.64,226.41 72.01,227.58 71.37,228.44 70.73,229.31 70.01,230.50 69.30,231.70 67.97,233.08 66.64,234.45 66.04,235.91 65.44,237.37 64.14,238.28 62.84,239.19 62.36,240.20 61.89,241.21 60.70,242.41 59.51,243.61 58.24,245.35 56.97,247.09 55.44,247.34 53.91,247.59 52.79,247.94 51.67,248.29 50.27,248.45 48.87,248.62 47.33,248.99 45.79,249.37 44.39,250.27 42.98,251.18 41.70,251.90 40.42,252.62 37.81,253.61 35.20,254.61 34.62,254.55 34.04,254.48 33.50,254.24 32.97,254.00 32.55,253.59 32.12,253.19 31.84,252.68 31.57,252.16 31.47,251.58 31.38,251.00 31.47,250.43 31.56,249.85 31.84,249.33 32.11,248.81 32.53,248.41 32.96,248.01 33.49,247.76 34.02,247.51 34.60,247.45 35.18,247.38 35.75,247.51 36.33,247.63 36.83,247.93 37.33,248.23 37.71,248.68 38.09,249.12 38.31,249.66 38.53,250.21 38.56,250.79 38.59,251.38 38.44,251.94 38.28,252.51 37.96,252.99 37.63,253.48 37.16,253.83 36.70,254.19 36.14,254.38 35.59,254.56 35.00,254.57 34.42,254.57 33.86,254.38 33.31,254.20 32.84,253.84 32.37,253.49 32.04,253.01 31.71,252.52 31.56,251.96 31.40,251.39 31.43,250.81 31.46,250.23 31.67,249.68 31.89,249.14 32.27,248.69 32.65,248.24 33.15,247.94 33.65,247.64 34.22,247.51 34.79,247.38 34.79,247.38 34.79,247.38 35.71,247.32 36.63,247.26 37.80,246.34 38.97,245.41 40.49,244.45 42.00,243.50 43.48,242.94 44.97,242.38 46.83,242.28 48.70,242.17 49.61,241.56 50.51,240.95 52.27,240.41 54.03,239.87 55.57,238.25 57.11,236.63 58.46,234.89 59.81,233.15 60.37,232.08 60.93,231.01 61.99,229.44 63.06,227.87 63.93,227.05 64.80,226.22 65.40,224.60 66.00,222.98 66.72,221.65 67.45,220.32 67.48,219.13 67.51,217.94 66.97,216.22 66.43,214.51 66.01,213.36 65.60,212.22 65.07,211.10 64.53,209.97 63.92,208.04 63.32,206.10 62.97,204.62 62.61,203.15 62.10,202.04 61.58,200.93 61.09,199.09 60.59,197.26 60.62,195.76 60.65,194.27 60.65,192.77 60.65,191.28 60.55,190.12 60.46,188.96 59.96,187.46 59.46,185.96 58.93,184.44 58.40,182.92 57.91,181.88 57.42,180.85 56.87,179.08 56.31,177.31 55.80,175.73 55.29,174.16 54.39,172.56 53.49,170.96 53.01,169.79 52.52,168.62 51.42,167.70 50.31,166.77 49.51,165.77 48.72,164.77 47.48,163.51 46.25,162.25 44.66,161.70 43.08,161.15 41.67,160.38 40.26,159.61 38.76,159.61 37.26,159.60 35.75,159.60 34.25,159.59 32.73,159.58 31.21,159.56 30.06,159.50 28.91,159.44 27.61,158.90 26.32,158.37 27.01,155.34 27.70,152.31 28.88,151.39 30.07,150.47 31.82,149.44 33.58,148.41 34.68,147.99 35.79,147.56 36.84,147.04 37.89,146.52 39.14,145.90 40.39,145.28 41.61,144.40 42.83,143.53 44.27,143.05 45.70,142.57 47.20,141.58 48.70,140.58 49.73,140.07 50.77,139.56 51.78,139.06 52.80,138.55 53.89,138.02 54.97,137.49 56.37,136.88 57.76,136.26 58.84,135.89 59.91,135.52 61.45,135.02 62.98,134.52 64.85,134.45 66.71,134.39 67.83,133.50 68.96,132.62 70.41,132.15 71.87,131.69 72.93,131.19 73.99,130.69 75.07,130.17 76.14,129.64 77.27,129.14 78.40,128.63 79.52,128.12 80.64,127.62 82.25,127.56 83.85,127.50 85.57,126.67 87.29,125.85 88.41,125.87 89.53,125.88 89.87,126.07 90.21,126.26 90.50,126.52 90.79,126.78 91.01,127.11 91.23,127.44 91.36,127.80 91.49,128.17 91.53,128.56 91.58,128.95 91.52,129.34 91.47,129.72 91.33,130.09 91.18,130.45 90.95,130.77 90.73,131.09 90.43,131.34 90.13,131.60 89.79,131.77 89.44,131.95 89.06,132.04 88.67,132.13 88.28,132.12 87.89,132.12 87.51,132.02 87.14,131.92 86.70,131.84 86.27,131.76 84.87,130.89 83.48,130.01 82.41,129.40 81.34,128.80 80.17,128.09 79.00,127.37 77.42,126.41 75.85,125.45 74.01,124.51 72.18,123.57 70.42,122.26 68.67,120.95 67.75,120.26 66.83,119.57 65.53,118.97 64.23,118.37 62.50,117.70 60.77,117.02 58.64,115.87 56.50,114.71 55.05,114.02 53.60,113.33 52.62,112.66 51.64,112.00 50.15,111.45 48.66,110.90 47.45,110.11 46.25,109.32 44.73,108.79 43.21,108.26 42.16,107.72 41.10,107.18 39.67,106.21 38.23,105.24 37.20,104.74 36.18,104.23 35.05,103.66 33.92,103.09 32.15,101.86 30.39,100.62 29.67,99.54 28.94,98.45 28.64,97.35 28.34,96.25 28.34,94.74 28.35,93.23 28.36,92.17 28.38,91.10 28.58,89.65 28.77,88.20 29.38,87.04 30.00,85.87 30.88,85.01 31.77,84.16 32.28,83.14 32.78,82.12 33.35,81.01 33.92,79.91 34.54,78.87 35.17,77.82 35.90,76.98 36.63,76.15 37.48,75.32 38.33,74.50 39.36,73.51 40.40,72.52 41.32,71.18 42.25,69.83 43.33,69.20 44.41,68.57 45.16,67.35 45.92,66.12 46.77,64.93 47.62,63.74 48.09,62.38 48.56,61.02 48.53,59.58 48.50,58.13 48.65,56.83 48.80,55.53 48.14,53.46 47.47,51.38 47.38,50.21 47.29,49.03 46.77,47.04 46.24,45.04 45.72,43.51 45.19,41.97 44.98,40.82 44.76,39.66 44.49,37.97 44.22,36.27 43.78,34.36 43.35,32.45 42.48,31.82 41.62,31.18 40.68,29.52 39.75,27.86 39.24,26.87 38.74,25.87 37.66,23.81 36.59,21.75 35.69,20.89 34.80,20.02 34.18,18.81 33.56,17.60 32.31,16.84 31.07,16.07 29.61,15.06 28.15,14.06 26.58,13.02 25.01,11.97 23.61,11.02 22.20,10.07 21.19,9.55 20.18,9.03 19.09,8.45 17.99,7.87 16.99,7.27 15.99,6.67 15.16,5.91 14.33,5.15 13.54,4.32 12.76,3.50 11.90,2.82 11.04,2.14 9.65,2.11 8.26,2.08 6.80,2.02 5.34,1.96 3.96,1.99 2.58,2.02 1.71,2.27 0.84,2.53 0.52,2.59 0.21,2.65 -0.10,2.64 -0.42,2.63 -0.73,2.54 -1.04,2.45 -1.32,2.29 -1.60,2.13 -1.83,1.90 -2.06,1.68 -2.23,1.41 -2.41,1.14 -2.51,0.83 -2.61,0.53 -2.63,0.21 -2.66,-0.10 -2.61,-0.42 -2.56,-0.74 -2.43,-1.03 -2.30,-1.33 -2.11,-1.59 -1.92,-1.84 -1.67,-2.05 -1.42,-2.25 -1.13,-2.39 -0.84,-2.53 -0.84,-2.53 L -0.84,-2.53 Z"></path></g><g transform="translate(726 1972) rotate(0 67 11.5)"><text x="134" y="18" font-family="Helvetica, Segoe UI Emoji" font-size="20px" fill="#c92a2a" text-anchor="end" style="white-space: pre;" direction="ltr">Links to stories</text></g><g transform="translate(899 1984) rotate(0 37.5 168.5)" stroke="none"><path fill="#c92a2a" d="M 1.99,-1.32 Q 1.99,-1.32 2.60,-0.49 3.21,0.34 4.36,1.85 5.51,3.36 6.93,5.23 8.35,7.09 9.08,7.94 9.81,8.78 10.92,10.07 12.03,11.35 13.10,12.49 14.17,13.62 15.08,15.21 16.00,16.79 17.55,18.46 19.09,20.12 19.75,21.18 20.40,22.23 21.17,23.47 21.93,24.71 23.74,26.66 25.55,28.62 26.33,29.81 27.12,31.00 27.89,31.91 28.67,32.81 29.57,33.78 30.47,34.75 31.30,35.90 32.12,37.04 32.90,37.92 33.68,38.81 34.44,39.93 35.21,41.04 36.79,43.01 38.37,44.97 39.60,46.40 40.83,47.83 41.60,48.94 42.37,50.05 42.98,51.11 43.59,52.17 44.66,53.71 45.72,55.25 46.59,56.68 47.46,58.10 47.97,59.52 48.47,60.94 49.25,61.69 50.02,62.45 50.32,63.76 50.63,65.07 51.42,66.49 52.21,67.92 52.27,69.47 52.32,71.03 52.53,72.35 52.74,73.68 52.99,75.91 53.23,78.15 53.80,79.71 54.37,81.26 54.93,83.30 55.49,85.33 55.69,86.64 55.88,87.96 56.15,89.11 56.42,90.25 56.80,91.25 57.17,92.25 57.40,93.92 57.64,95.60 58.12,98.13 58.61,100.66 59.12,102.84 59.62,105.02 59.68,106.46 59.73,107.90 60.38,110.04 61.03,112.18 61.23,113.85 61.43,115.51 61.97,117.66 62.51,119.81 63.23,121.59 63.94,123.38 64.22,124.68 64.51,125.97 65.06,128.02 65.62,130.07 65.97,131.38 66.33,132.70 66.63,134.57 66.93,136.45 67.40,137.85 67.87,139.26 68.41,141.27 68.95,143.28 69.05,144.58 69.16,145.87 69.69,147.38 70.22,148.90 70.26,150.28 70.30,151.67 70.76,153.91 71.22,156.15 71.65,157.67 72.07,159.19 72.18,160.58 72.29,161.96 72.69,163.18 73.09,164.40 73.59,165.90 74.09,167.39 74.24,168.74 74.39,170.09 74.42,171.16 74.45,172.23 74.83,173.33 75.21,174.43 75.34,175.76 75.47,177.10 75.50,178.16 75.52,179.23 75.54,180.74 75.55,182.25 75.92,183.83 76.28,185.40 76.35,186.47 76.42,187.54 76.46,188.82 76.50,190.11 76.87,191.26 77.25,192.42 77.38,193.76 77.51,195.10 77.51,196.57 77.52,198.05 77.53,199.14 77.54,200.22 77.91,201.82 78.28,203.41 78.40,204.76 78.53,206.10 78.55,207.16 78.57,208.23 78.58,209.74 78.59,211.25 78.56,212.95 78.53,214.65 78.43,216.19 78.33,217.72 78.30,219.64 78.28,221.55 78.26,223.42 78.24,225.28 78.24,226.97 78.24,228.65 78.25,230.31 78.25,231.97 78.24,233.78 78.24,235.60 78.24,237.28 78.24,238.96 78.26,240.37 78.27,241.78 78.29,242.97 78.32,244.17 77.89,246.30 77.46,248.42 77.03,250.70 76.61,252.98 76.07,255.04 75.54,257.09 75.45,258.21 75.37,259.32 74.96,260.58 74.55,261.84 74.07,262.88 73.60,263.91 73.07,265.94 72.55,267.96 71.99,270.37 71.43,272.78 71.22,274.24 71.02,275.70 70.57,277.46 70.13,279.22 69.63,280.82 69.13,282.42 68.91,284.00 68.68,285.58 68.20,287.58 67.73,289.58 67.24,291.32 66.76,293.07 66.60,294.50 66.45,295.93 66.06,297.58 65.68,299.24 65.56,300.61 65.44,301.99 65.07,303.64 64.70,305.28 64.26,306.63 63.82,307.98 63.69,310.10 63.55,312.21 63.20,313.42 62.86,314.62 62.81,316.20 62.76,317.78 62.37,318.93 61.99,320.07 61.96,321.30 61.94,322.53 61.49,323.63 61.04,324.74 61.12,326.03 61.19,327.32 61.22,329.08 61.25,330.83 61.28,332.01 61.30,333.18 61.31,335.09 61.33,337.00 61.24,337.53 61.15,338.06 60.90,338.53 60.65,339.01 60.26,339.38 59.86,339.75 59.37,339.98 58.89,340.20 58.35,340.26 57.81,340.32 57.29,340.20 56.76,340.09 56.30,339.81 55.84,339.53 55.49,339.12 55.14,338.71 54.94,338.21 54.74,337.71 54.71,337.17 54.68,336.63 54.83,336.12 54.97,335.60 55.28,335.15 55.58,334.70 56.01,334.38 56.44,334.05 56.95,333.88 57.46,333.71 58.00,333.71 58.53,333.71 59.04,333.88 59.56,334.05 59.98,334.38 60.41,334.71 60.72,335.15 61.02,335.60 61.16,336.12 61.31,336.64 61.28,337.17 61.25,337.71 61.05,338.21 60.85,338.71 60.50,339.12 60.15,339.53 59.69,339.81 59.23,340.09 58.70,340.20 58.17,340.32 57.64,340.26 57.10,340.20 56.61,339.98 56.13,339.75 55.73,339.38 55.34,339.01 55.09,338.53 54.84,338.06 54.75,337.53 54.66,336.99 54.66,336.99 54.66,336.99 54.69,334.53 54.72,332.07 54.73,330.66 54.75,329.24 54.82,327.68 54.89,326.11 55.05,324.81 55.22,323.51 55.70,322.20 56.19,320.90 56.56,319.37 56.92,317.84 57.26,316.54 57.60,315.23 58.13,313.54 58.67,311.86 58.78,310.42 58.89,308.98 59.18,307.70 59.46,306.42 59.90,305.34 60.34,304.25 60.67,302.89 61.01,301.53 61.20,299.87 61.40,298.22 61.75,296.81 62.10,295.40 62.32,293.68 62.54,291.96 62.95,290.35 63.35,288.74 63.60,286.91 63.86,285.08 64.00,283.05 64.15,281.02 64.52,279.54 64.90,278.06 65.16,276.63 65.42,275.21 65.51,273.23 65.60,271.26 65.87,270.08 66.14,268.91 66.33,267.58 66.51,266.25 66.79,265.11 67.08,263.97 67.72,261.78 68.37,259.60 68.67,258.36 68.97,257.13 69.44,255.48 69.91,253.83 70.28,251.94 70.65,250.04 70.77,248.75 70.90,247.46 71.29,245.81 71.67,244.17 71.70,242.97 71.72,241.78 71.73,240.37 71.75,238.96 71.75,237.28 71.75,235.60 71.75,233.78 71.74,231.97 71.74,230.31 71.75,228.65 71.75,226.97 71.75,225.28 71.73,223.42 71.71,221.55 71.68,219.64 71.66,217.72 71.54,215.28 71.42,212.83 71.41,211.55 71.40,210.26 71.40,208.79 71.40,207.32 71.44,206.15 71.47,204.99 70.99,203.74 70.50,202.48 70.48,200.84 70.46,199.19 70.45,198.03 70.45,196.87 70.47,195.41 70.49,193.94 70.00,192.70 69.52,191.46 69.49,190.31 69.46,189.16 69.35,187.60 69.25,186.04 68.85,183.65 68.44,181.26 68.45,179.79 68.46,178.32 68.50,177.14 68.54,175.96 68.06,174.73 67.58,173.50 67.55,172.41 67.53,171.32 67.57,170.12 67.61,168.91 67.02,166.91 66.42,164.92 66.01,163.10 65.60,161.28 65.53,160.20 65.46,159.12 64.99,156.80 64.52,154.48 64.09,153.24 63.66,151.99 63.68,150.40 63.70,148.81 63.23,147.64 62.76,146.47 62.75,145.05 62.74,143.64 62.24,141.48 61.74,139.33 61.32,138.17 60.89,137.01 60.81,135.85 60.73,134.70 60.35,133.47 59.97,132.23 59.87,130.85 59.76,129.47 59.26,127.50 58.76,125.52 58.29,124.37 57.82,123.21 57.35,120.95 56.88,118.69 56.46,117.46 56.03,116.24 55.87,115.03 55.72,113.83 55.25,112.46 54.79,111.08 54.43,109.64 54.07,108.21 53.90,106.17 53.74,104.13 53.33,102.73 52.92,101.34 52.79,100.26 52.67,99.18 52.10,96.78 51.53,94.38 51.03,93.11 50.52,91.84 49.97,89.52 49.42,87.20 48.90,85.45 48.39,83.70 47.89,82.53 47.40,81.36 47.00,79.93 46.60,78.50 46.50,77.23 46.40,75.96 46.01,74.09 45.62,72.21 45.63,71.09 45.63,69.97 45.41,68.72 45.18,67.47 44.81,66.16 44.44,64.85 43.74,64.01 43.04,63.17 42.47,61.69 41.89,60.21 41.33,59.18 40.76,58.15 39.76,56.53 38.75,54.92 37.75,53.20 36.75,51.48 35.85,50.46 34.95,49.44 33.96,47.69 32.97,45.95 31.36,44.08 29.74,42.21 28.23,40.22 26.72,38.23 25.73,37.17 24.74,36.11 23.78,34.93 22.81,33.76 22.20,32.77 21.58,31.77 20.74,30.73 19.89,29.69 18.77,28.60 17.65,27.51 16.77,26.19 15.90,24.88 14.92,23.20 13.94,21.53 12.85,20.38 11.77,19.24 11.18,18.15 10.59,17.05 9.47,15.95 8.36,14.84 7.03,13.56 5.70,12.28 4.24,10.31 2.78,8.33 1.87,7.22 0.97,6.11 0.02,4.60 -0.91,3.10 -1.45,2.21 -1.99,1.32 -2.12,1.07 -2.25,0.81 -2.31,0.53 -2.38,0.25 -2.37,-0.03 -2.37,-0.32 -2.29,-0.60 -2.22,-0.88 -2.08,-1.13 -1.94,-1.39 -1.75,-1.60 -1.55,-1.81 -1.31,-1.97 -1.07,-2.13 -0.80,-2.23 -0.53,-2.33 -0.24,-2.36 0.03,-2.39 0.32,-2.35 0.61,-2.31 0.87,-2.20 1.14,-2.10 1.38,-1.93 1.61,-1.76 1.80,-1.54 1.99,-1.32 1.99,-1.32 L 1.99,-1.32 Z"></path></g><g transform="translate(937 2327) rotate(0 27 17)" stroke="none"><path fill="#c92a2a" d="M 1.18,-2.37 Q 1.18,-2.37 2.36,-1.78 3.54,-1.19 4.41,-0.41 5.29,0.35 6.27,1.27 7.24,2.18 8.26,3.07 9.28,3.97 9.98,5.14 10.68,6.32 11.25,7.35 11.81,8.38 12.19,9.63 12.57,10.87 13.40,12.37 14.23,13.87 14.67,15.14 15.11,16.41 15.61,17.86 16.10,19.30 16.74,20.76 17.39,22.22 18.31,24.16 19.24,26.09 19.75,27.22 20.26,28.36 20.52,29.69 20.77,31.03 22.06,30.75 23.35,30.48 24.25,29.69 25.16,28.90 26.73,28.34 28.30,27.78 29.82,27.24 31.34,26.71 32.42,26.43 33.50,26.14 34.80,25.51 36.09,24.87 37.71,24.31 39.33,23.75 40.84,23.24 42.34,22.73 44.21,21.81 46.07,20.89 47.69,20.31 49.32,19.74 51.20,19.13 53.07,18.52 53.65,18.47 54.23,18.41 54.80,18.54 55.36,18.67 55.86,18.98 56.35,19.28 56.72,19.73 57.10,20.18 57.30,20.72 57.51,21.26 57.54,21.84 57.56,22.43 57.40,22.98 57.24,23.54 56.91,24.02 56.57,24.50 56.11,24.84 55.64,25.19 55.09,25.37 54.53,25.55 53.95,25.54 53.37,25.53 52.82,25.34 52.27,25.15 51.82,24.79 51.36,24.44 51.04,23.95 50.72,23.47 50.57,22.90 50.42,22.34 50.46,21.76 50.49,21.18 50.72,20.64 50.94,20.11 51.32,19.67 51.70,19.23 52.20,18.94 52.70,18.64 53.27,18.52 53.84,18.40 54.42,18.47 55.00,18.54 55.52,18.79 56.05,19.04 56.46,19.45 56.88,19.85 57.15,20.37 57.41,20.89 57.50,21.46 57.59,22.04 57.49,22.61 57.39,23.18 57.11,23.69 56.83,24.20 56.40,24.60 55.98,24.99 55.45,25.23 54.92,25.47 54.92,25.47 54.92,25.47 53.03,25.99 51.14,26.50 49.15,27.50 47.15,28.49 45.63,29.00 44.10,29.51 42.60,30.00 41.09,30.50 39.56,31.04 38.03,31.58 37.10,32.17 36.17,32.77 34.93,33.21 33.70,33.65 32.50,33.69 31.30,33.72 29.88,34.10 28.47,34.48 26.94,35.69 25.41,36.91 23.76,37.17 22.11,37.44 20.68,37.23 19.24,37.02 17.96,36.26 16.68,35.51 15.65,33.70 14.62,31.90 13.97,30.48 13.31,29.05 12.81,28.11 12.31,27.17 11.45,25.58 10.59,23.99 9.98,22.09 9.37,20.18 9.00,19.09 8.63,18.00 7.83,15.83 7.03,13.67 6.79,12.34 6.54,11.01 5.81,9.62 5.07,8.22 4.17,7.27 3.28,6.31 2.16,4.90 1.05,3.49 -0.06,2.93 -1.18,2.37 -1.45,2.20 -1.72,2.02 -1.94,1.78 -2.15,1.55 -2.31,1.27 -2.46,0.99 -2.54,0.68 -2.63,0.37 -2.63,0.05 -2.64,-0.26 -2.57,-0.58 -2.50,-0.89 -2.36,-1.18 -2.21,-1.46 -2.00,-1.71 -1.80,-1.95 -1.54,-2.14 -1.28,-2.32 -0.98,-2.44 -0.68,-2.56 -0.36,-2.61 -0.05,-2.65 0.26,-2.62 0.58,-2.59 0.88,-2.48 1.18,-2.37 1.18,-2.37 L 1.18,-2.37 Z"></path></g><g stroke-linecap="round" transform="translate(223 2390) rotate(0 514 258)"><path d="M0.12 -0.64 C295.66 -1.02, 591.28 -0.96, 1028.61 0.74 M-0.06 -0.25 C223.3 1.23, 446.8 1.29, 1027.6 0.36 M1027.85 0.32 C1028.88 143.2, 1028.45 287.96, 1028.74 515.3 M1027.9 0.25 C1027.94 177.47, 1027.91 355.6, 1027.87 515.71 M1027.6 515.81 C651.76 514.83, 277.27 514.46, -0.09 515.62 M1028.01 516.27 C621.11 513.38, 214.1 513.48, 0.05 516.28 M-0.3 516.22 C0.92 380.39, 0.92 245.76, 0.22 -0.2 M0.4 516.28 C-0.04 354.82, 0.25 193.37, 0 0.2" stroke="#000000" stroke-width="1" fill="none"></path></g><g transform="translate(515 2431) rotate(0 79.5 11.5)"><text x="159" y="18" font-family="Helvetica, Segoe UI Emoji" font-size="20px" fill="#000000" text-anchor="end" style="white-space: pre;" direction="ltr">Title by username</text></g><g transform="translate(611 2498) rotate(0 88.5 11.5)"><text x="177" y="18" font-family="Helvetica, Segoe UI Emoji" font-size="20px" fill="#000000" text-anchor="end" style="white-space: pre;" direction="ltr">this story piece is a </text></g><g transform="translate(855 2503) rotate(0 44.5 34.5)"><text x="89" y="18" font-family="Helvetica, Segoe UI Emoji" font-size="20px" fill="#000000" text-anchor="end" style="white-space: pre;" direction="ltr">Beginning</text><text x="89" y="41" font-family="Helvetica, Segoe UI Emoji" font-size="20px" fill="#000000" text-anchor="end" style="white-space: pre;" direction="ltr">Middle</text><text x="89" y="64" font-family="Helvetica, Segoe UI Emoji" font-size="20px" fill="#000000" text-anchor="end" style="white-space: pre;" direction="ltr">End</text></g><g stroke-linecap="round" transform="translate(470 2635) rotate(0 288.5 68)"><path d="M-0.45 -0.7 C132.09 1.55, 264.32 1.91, 576.31 -0.02 M-0.33 -0.32 C206.59 -1.52, 413.79 -1.84, 576.9 0.02 M575.86 1.91 C577.02 33.4, 575.5 69.07, 577.14 137.58 M577.46 -0.63 C577.79 54.27, 576.56 107.74, 576.82 136.71 M577.67 136.53 C375.66 136.86, 175.33 136.6, 0.72 135.69 M576.61 135.86 C370.95 135.67, 164.45 135.48, -0.04 135.87 M-0.12 135.06 C-1.02 107.41, 0.27 77.99, 0.51 0.7 M-0.56 136.05 C0.16 108.52, 1.51 80.79, -0.04 0.36" stroke="#000000" stroke-width="1" fill="none"></path></g><g transform="translate(734 2694) rotate(0 95.5 11.5)"><text x="191" y="18" font-family="Helvetica, Segoe UI Emoji" font-size="20px" fill="#000000" text-anchor="end" style="white-space: pre;" direction="ltr">Existing story content</text></g><g transform="translate(268 1563) rotate(0 100.5 23)"><text x="201" y="18" font-family="Helvetica, Segoe UI Emoji" font-size="20px" fill="#000000" text-anchor="end" style="white-space: pre;" direction="ltr">Enter known fragment</text><text x="201" y="41" font-family="Helvetica, Segoe UI Emoji" font-size="20px" fill="#000000" text-anchor="end" style="white-space: pre;" direction="ltr">to include in your story</text></g><g stroke-linecap="round" transform="translate(505 1575) rotate(0 137.5 14)"><path d="M-1.43 0.5 C55.92 -0.42, 109.91 -0.33, 273.57 -0.43 M-0.59 -0.33 C59.6 1.44, 118.35 0.78, 275.57 -0.34 M273.67 -0.57 C275.04 5.03, 275.82 12.74, 276.47 29.71 M274.24 -0.31 C274.3 9.68, 276.08 20.37, 274.52 27.83 M273.96 28.95 C193.7 24.97, 110.77 26.89, 1.4 26.97 M274.55 27.27 C201.53 28.83, 128.39 29.23, -0.01 27.41 M-1.71 29.82 C-0.36 20.38, 1.6 9.43, 0.27 0.76 M0.78 27.14 C-0.93 22.44, -0.68 16.91, -0.77 -0.31" stroke="#000000" stroke-width="1" fill="none"></path></g><g transform="translate(389 2794) rotate(0 46.5 11.5)"><text x="93" y="18" font-family="Helvetica, Segoe UI Emoji" font-size="20px" fill="#000000" text-anchor="end" style="white-space: pre;" direction="ltr">upload my</text></g><g transform="translate(520 2802) rotate(0 43.5 34.5)"><text x="87" y="18" font-family="Helvetica, Segoe UI Emoji" font-size="20px" fill="#000000" text-anchor="end" style="white-space: pre;" direction="ltr">beginning</text><text x="87" y="41" font-family="Helvetica, Segoe UI Emoji" font-size="20px" fill="#000000" text-anchor="end" style="white-space: pre;" direction="ltr">middle</text><text x="87" y="64" font-family="Helvetica, Segoe UI Emoji" font-size="20px" fill="#000000" text-anchor="end" style="white-space: pre;" direction="ltr">end</text></g><g stroke-linecap="round" transform="translate(648 2812) rotate(0 92 11)"><path d="M-1.75 0.64 C72.05 0.36, 139.59 0.2, 186 0.5 M0.27 0.59 C50.02 2.46, 100.83 1.59, 184.87 0.94 M182.06 -1.36 C184.59 8.84, 183.25 15.84, 183.37 22.89 M183.32 0.47 C184.68 5.73, 182.98 9.57, 184.57 22.4 M185.26 21.48 C135.54 21.87, 83.82 20.74, -0.16 23.86 M183.78 21.29 C113.38 21.42, 43.45 21.26, -0.92 21.97 M-0.49 20.91 C-1.67 13.34, -0.64 9.63, -0.32 1.14 M-0.23 22.98 C-0.19 15.23, -1.07 9.28, -0.78 -0.18" stroke="#000000" stroke-width="1" fill="none"></path></g></svg>